<?xml version="1.0" encoding="utf-8"?>
<svg version="1.1" id="Layer_1" xmlns="http://www.w3.org/2000/svg" xmlns:xlink="http://www.w3.org/1999/xlink" x="0px" y="0px"
	 viewBox="0 0 2623.921 1488.866" enable-background="new 0 0 2623.921 1488.866" xml:space="preserve">
<linearGradient id="SVGID_1_" gradientUnits="userSpaceOnUse" x1="31.9604" y1="744.6404" x2="2591.9604" y2="744.6404">
	<stop  offset="0" style="stop-color:#9C420F"/>
	<stop  offset="0.1576" style="stop-color:#EE6321"/>
	<stop  offset="0.2028" style="stop-color:#EF6720"/>
	<stop  offset="0.2526" style="stop-color:#F0751D"/>
	<stop  offset="0.3045" style="stop-color:#F38B18"/>
	<stop  offset="0.3579" style="stop-color:#F6AA11"/>
	<stop  offset="0.412" style="stop-color:#FBD108"/>
	<stop  offset="0.45" style="stop-color:#FFF101"/>
	<stop  offset="0.55" style="stop-color:#FFF101"/>
	<stop  offset="0.5578" style="stop-color:#FEEC02"/>
	<stop  offset="0.6334" style="stop-color:#F9BB0D"/>
	<stop  offset="0.705" style="stop-color:#F49516"/>
	<stop  offset="0.7708" style="stop-color:#F1791C"/>
	<stop  offset="0.8288" style="stop-color:#EF6920"/>
	<stop  offset="0.8727" style="stop-color:#EE6321"/>
	<stop  offset="1" style="stop-color:#A1420E"/>
</linearGradient>
<path fill="url(#SVGID_1_)" d="M2195.809,269.881c-17.373-1.343-34.534-8.1-47.369-20.016c17.627-1.965,36.639-8.496,53.404,0.58
	c-1.484-14.984,8.835-27.028,16.115-39c5.866,11.874,8.043,25.628,5.598,38.704c4.73-1.919,14.372,0.313,17.458,4.128
	c-2.827,0.325-5.711,0.099-8.411,0.862c-19.903,28.036-30.502,20.763-38.364,25.67c-3.901,2.205-7.972,4.071-12.298,5.188
	c-2.615-4.142-5.259-8.241-7.732-12.439C2181.32,272.214,2189.335,273.557,2195.809,269.881z M1285.711,554.419
	c0,0,188.158-0.099,188.16-0.099c0,0,133.539,5.23,133.54,5.23c30.073-107.9,2.627-224.911-73.689-307.593
	c-5.472-6.029-27.521-28.524-32.088-29.939c-11.495-12.706-57.687-41.046-63.455-41.361
	c-40.878-26.024-198.153-74.55-341.151,31.947c-2.007,1.64-4.424,2.983-5.683,5.329c-37.071,18.051-168.278,163.778-107.318,354.184
	C1177.391,556.04,1285.711,554.419,1285.711,554.419z M877.699,317.561c4,2.318,8.227,4.198,12.68,5.499
	c2.714-4.057,5.386-8.142,7.775-12.411c-7.153-1.159-14.786-0.466-21.5-3.421c17.09-2.092,34.604-7.958,47.029-20.313
	c-26.786-4.243-36.912-6.898-53.009,0.452c1.414-14.998-9.174-26.702-15.889-38.986c-6.248,11.676-8.439,25.769-5.64,38.746
	c-6.191-1.739-13.16,0.311-18.193,4.114c2.898,0.269,5.81,0.353,8.736,0.424C857.44,319.078,871.932,313.818,877.699,317.561z
	 M168.412,523.984c2.078,1.187,4.424,1.414,6.771,1.541c5.951,8.496,13.528,17.217,24.257,19.21
	c6.305,0.452,11.351,4.608,17.175,6.63c2.544-3.294,4.806-6.799,6.926-10.376c-5.81-1.046-12.143-0.283-17.556-2.94
	c14.178-1.414,27.96-6.941,38.718-16.383c-14.39-2.318-30.067-6.828-43.891,0.113c0.848-12.355-7.308-22.419-13.57-32.215
	c-4.34,9.867-6.22,20.779-4.764,31.508C177.586,520.549,172.893,522.246,168.412,523.984z M1877.742,512.436
	C1877.954,517.1,1881.983,510.259,1877.742,512.436L1877.742,512.436z M1987.972,517.779c-3.972,0.113-8.241-1.131-11.945,0.636
	c7.068,1.456,14.362,2.021,21.585,1.583C1995.209,517.327,1991.138,518.316,1987.972,517.779z M1899.172,526.091
	c0.24-2.036-3.265-2.078-4.156-0.792C1894.719,527.32,1898.21,527.363,1899.172,526.091z M1698.473,529.031
	c-0.283-1.965-1.244-2.304-2.898-1.004C1695.816,529.978,1696.777,530.303,1698.473,529.031z M1741.926,534.572
	c-4.768-2.97-30.314-5.797-32.215-5.824C1713.755,532.83,1736.405,534.783,1741.926,534.572z M1786.651,535.463
	c8.505,2.168,42.719,4.567,48.358,4.594C1819.715,533.696,1802.809,535.123,1786.651,535.463z M2064.715,543.69
	c0.226,1.965,1.173,2.304,2.855,1.032C2067.302,542.728,2066.354,542.389,2064.715,543.69z M679.106,546.587
	c-0.778,2.262,0.014,3.011,2.361,2.262C682.216,546.531,681.424,545.782,679.106,546.587z M2087.558,554.065
	c5.626,0.057,12.68,2.191,17.486-1.442C2099.22,552.326,2093.057,551.747,2087.558,554.065z M1989.654,574.604
	c0.24,1.923,1.23,2.262,2.969,1.018C1992.312,573.685,1991.322,573.346,1989.654,574.604z M2107.517,574.76
	c3.181,3.11,7.718,2.912,11.817,2.106C2116.027,574.025,2111.532,574.435,2107.517,574.76z M1863.012,584.344
	c-0.353-2.106-3.52-2.502-4.806-1.088C1856.651,586.097,1862.687,587.326,1863.012,584.344z M711.873,588.542
	c-0.226-1.979-1.173-2.318-2.841-1.004C709.244,589.503,710.177,589.843,711.873,588.542z M1961.92,588.118
	c6.077,2.311,26.49,1.983,30.236,1.216C1982.12,588.344,1971.999,587.623,1961.92,588.118z M2027.255,591.482
	c2.502-0.028,5.004-0.085,7.563-0.226c-1.88-2.078-4.693-2.332-7.237-2.757C2027.495,589.249,2027.34,590.733,2027.255,591.482z
	 M978.444,596.712c-7.647-0.721-15.733-1.428-23.098,1.216C963.007,598.494,970.952,598.663,978.444,596.712z M1138.233,597.547
	c-7.718-0.41-15.479,0.297-23.041,1.852C1119.309,601.932,1133.581,598.849,1138.233,597.547z M951.444,604.982
	c20.8,0.215,142.503-4.283,142.912-4.396C1078.652,598.46,962.292,603.414,951.444,604.982z M1385.014,605.321
	c1.654-2.135-2.134-4.198-3.463-2.177C1379.841,605.279,1383.629,607.314,1385.014,605.321z M1414.855,604.077l-0.028-1.23
	c-5.287-0.184-10.588-0.438-15.818,0.297C1403.97,605.406,1409.596,603.95,1414.855,604.077z M904.556,607.555
	c6.05,0.526,29.375-0.291,30.378-0.367c0.339-0.382,1.018-1.145,1.357-1.513C929.683,605.127,910.74,605.324,904.556,607.555z
	 M830.825,609.42c1.682-2.191-2.233-4.057-3.548-2.092C825.566,609.505,829.496,611.385,830.825,609.42z M1238.187,609.406
	c0.707-2.304-0.085-3.053-2.403-2.276C1235.049,609.406,1235.854,610.156,1238.187,609.406z M817.438,608.29
	c-0.339,0.438-1.032,1.286-1.371,1.71C817.523,614.82,822.88,607.385,817.438,608.29z M847.264,608.374
	C847.476,613.068,851.505,606.155,847.264,608.374L847.264,608.374z M698.84,620.065c-0.763,2.276,0.028,3.025,2.361,2.276
	C701.935,620.051,701.158,619.287,698.84,620.065z M1391.05,624.291c0.014-0.834,0.042-2.488,0.057-3.322
	c-1.979,0.127-3.93,0.268-5.852,0.424C1385.368,624.588,1388.831,623.768,1391.05,624.291z M1399.178,623.5
	c1.696-2.149-2.163-4.114-3.506-2.191C1393.976,623.443,1397.793,625.45,1399.178,623.5z M1281.47,625.154
	c-0.283-1.951-1.258-2.276-2.926-0.99C1278.785,626.086,1279.76,626.426,1281.47,625.154z M698.854,632.744
	c-1.71-0.452-4.283,2.106-1.739,2.997C699.744,637.338,703.066,632.306,698.854,632.744z M715.958,632.956
	c-3.223-0.382-6.46-0.452-9.669-0.155C709.088,635.006,713.018,634.766,715.958,632.956z M2003.677,662.373
	c-1.428,2.813,4.622,3.916,4.99,1.06C2008.2,661.313,2005.02,661.016,2003.677,662.373z M2016.158,662.33
	C2016.37,667.009,2020.399,660.153,2016.158,662.33L2016.158,662.33z M803.712,672.381c-0.297,2.05,3.237,1.993,4.156,0.735
	C808.137,671.066,804.603,671.094,803.712,672.381z M778.537,673.978c3.605,2.276,8.086,0.523,12.001,0.198
	C786.594,673.314,782.509,673.384,778.537,673.978z M2269.583,683.576c-1.498,1.894,1.866,3.831,3.209,2.149
	C2274.262,683.788,2270.855,681.852,2269.583,683.576z M2089.707,685.046c-0.749,2.262,0.042,3.039,2.403,2.347
	C2092.802,685.103,2091.996,684.326,2089.707,685.046z M1308.158,686.63c-5.965,1.145-12.058,0.65-18.051,1.329l-0.919,1.88
	c9.457-0.127,19.013-0.17,28.314-2.163C1314.901,685.329,1311.24,686.276,1308.158,686.63z M1347.936,686.63
	c-6.644-0.876-13.344-0.396-20.002-0.481l-0.141,2.544C1334.451,688.043,1341.688,689.513,1347.936,686.63z M1945.424,686.672
	c-1.527,1.951,1.979,3.704,3.308,2.078C1950.187,686.799,1946.682,685.004,1945.424,686.672z M2134.828,695.874
	c-3.294-3.407-8.326-3.393-12.609-4.523c-6.389-1.074-12.538-3.562-19.027-3.831
	C2108.161,691.692,2129.852,695.467,2134.828,695.874z M1958.146,689.103c-0.763,2.262,0.028,3.039,2.375,2.346
	C1961.255,689.174,1960.464,688.382,1958.146,689.103z M2082.681,694.687c-2.191-4.721-8.849-2.912-13.09-3.661
	C2073.776,692.75,2078.172,693.966,2082.681,694.687z M1114.811,693.189c-0.269-1.965-1.216-2.304-2.87-0.989
	C1112.181,694.164,1113.143,694.489,1114.811,693.189z M1138.431,691.888C1138.643,696.553,1142.686,689.697,1138.431,691.888
	L1138.431,691.888z M1081.422,694.941c-0.622-1.866-3.421-2.587-4.891-1.371C1075.485,695.889,1081.012,697.514,1081.422,694.941z
	 M2387.15,698.659c-0.608,0.113-1.809,0.339-2.417,0.466l-0.339-1.244l-1.442-0.495l-1.032,0.735
	c-4.439-0.975-8.976-1.074-13.457-1.498c-0.071,0.353-0.198,1.06-0.254,1.414c6.347,1.06,12.694,2.29,19.168,2.573L2387.15,698.659z
	 M1034.096,697.938c-2.544-1.117-5.923-1.131-8.396,0.127C1027,700.087,1032.682,699.776,1034.096,697.938z M2291.338,698.8
	c-0.523-1.922-3.435-2.375-4.707-1.074C2285.528,700.242,2291.027,701.472,2291.338,698.8z M998.488,699.182
	C998.7,703.889,1002.715,696.977,998.488,699.182L998.488,699.182z M2302.237,702.023c-0.368,2.007,3.082,2.219,4,0.834
	C2306.548,700.836,2303.071,700.638,2302.237,702.023z M2312.089,704.78c0.226,1.937,1.202,2.29,2.912,1.046
	C2314.719,703.861,2313.757,703.522,2312.089,704.78z M1074.185,711.565l0.028,1.88c3.958-0.085,7.944-0.24,11.888-0.919
	C1082.355,710.759,1078.143,711.523,1074.185,711.565z M1103.771,715.311c1.428-2.12-2.29-3.096-3.661-2.191
	C1096.194,715.071,1102.117,717.841,1103.771,715.311z M1118.641,715.41c-2.163-2.304-5.64-1.428-8.425-1.922
	c-0.014,0.466-0.042,1.414-0.057,1.88C1112.973,715.495,1115.8,715.551,1118.641,715.41z M2114.854,713.417
	c-14.382-2.2-20.953-0.346-24.681-0.283C2097.207,717.33,2105.671,713.844,2114.854,713.417z M657.931,718.76
	C658.115,723.425,662.2,716.583,657.931,718.76L657.931,718.76z M2063.131,721.135c-0.297-1.993-1.258-2.346-2.869-1.046
	C2060.488,722.054,2061.449,722.407,2063.131,721.135z M949.423,724.16c-0.254-1.979-1.216-2.318-2.884-1.018
	C946.766,725.093,947.727,725.418,949.423,724.16z M888.597,726.987c-0.269-1.965-1.23-2.29-2.884-0.99
	C885.954,727.948,886.915,728.273,888.597,726.987z M1977.95,729.503c0.961,0.042,2.884,0.113,3.845,0.156
	c0-0.891,0.014-2.672,0.014-3.562c-1.032-0.014-3.082-0.028-4.114-0.028C1977.766,726.916,1977.893,728.641,1977.95,729.503z
	 M644.983,727.1c-0.368,0.41-1.074,1.244-1.428,1.668C644.997,733.532,650.496,726.28,644.983,727.1z M632.812,730.719
	c0.721-1.965,0.071-2.629-1.979-1.979C630.126,730.676,630.791,731.341,632.812,730.719z M2456.613,731.27
	c0.693-2.276-0.113-3.067-2.403-2.361C2453.446,731.171,2454.252,731.949,2456.613,731.27z M2085.381,729.885
	c-3.676,1.922,1.64,5.131,3.35,2.403C2090.088,730.295,2086.851,728.825,2085.381,729.885z M2064.489,732.429
	c0.311-2.007-3.138-2.276-3.986-0.876C2060.121,733.56,2063.57,733.786,2064.489,732.429z M739.056,738.083
	c1.682-2.177-2.149-4.17-3.477-2.134C733.91,738.083,737.713,740.091,739.056,738.083z M749.672,735.765
	C749.884,740.43,753.926,733.588,749.672,735.765L749.672,735.765z M714.516,737.023C714.7,741.716,718.757,734.818,714.516,737.023
	L714.516,737.023z M676.42,740.444c1.668-1.993-1.937-3.817-3.067-1.809C671.713,740.656,675.205,742.183,676.42,740.444z
	 M687.757,739.681c-0.24-1.965-1.202-2.29-2.87-0.99C685.114,740.642,686.075,740.981,687.757,739.681z M697.751,739.61
	c-0.226-1.993-1.173-2.332-2.827-1.004C695.136,740.571,696.083,740.896,697.751,739.61z M2288.567,738.522
	c3.039,2.021,6.559,3.11,10.149,3.802C2295.833,739.964,2292.299,738.479,2288.567,738.522z M624.161,741.815
	c1.513-1.979-2.05-2.799-3.265-1.852C617.164,741.886,622.648,744.303,624.161,741.815z M2317.56,740.077
	c0.226,1.951,1.187,2.276,2.898,1.018C2320.175,739.13,2319.199,738.79,2317.56,740.077z M2476.459,740.586
	c4.34,3.562,11.083,1.541,16.369,1.64C2487.979,739.158,2481.845,740.854,2476.459,740.586z M2342.58,745.957
	c-4.566-1.753-9.443-2.474-14.277-2.686C2332.911,744.756,2337.76,745.392,2342.58,745.957z M2248.267,752.997
	c-1.428,2.446,2.785,4.156,4.283,2.276C2253.695,753.011,2249.595,751.032,2248.267,752.997z M2381.863,755.188
	c-0.749-1.654-3.379-2.106-4.637-0.905C2376.647,756.432,2381.637,757.563,2381.863,755.188z M408.691,756.729
	c-0.749,2.262,0.028,3.025,2.346,2.262C411.8,756.686,411.023,755.937,408.691,756.729z M2505.479,766.694
	c-2.021-3.689-6.842-2.969-10.362-3.506C2496.828,767.245,2501.875,766.553,2505.479,766.694z M2380.746,769.422
	c-10.432-1.555-20.878-3.548-31.452-3.562C2355.015,767.787,2376.759,771.055,2380.746,769.422z M2415.181,772.589
	c0,2.403,4.255,2.403,5.993,1.739C2421.627,771.599,2416.721,770.977,2415.181,772.589z M500.573,788.435
	c-12.27,0.5-40.742,4.851-47.029,7.704C461.748,796.538,495.506,789.793,500.573,788.435z M957.537,787.997
	C957.749,792.676,961.778,785.806,957.537,787.997L957.537,787.997z M948.179,793.128c1.47-2.078-2.036-3.336-3.463-2.262
	C940.927,792.817,946.511,795.785,948.179,793.128z M440.044,794.966c-0.353,0.424-1.046,1.286-1.399,1.725
	C440.029,801.496,445.472,794.089,440.044,794.966z M663.444,804.451l-1.173-1.046c0.523-0.608,1.569-1.824,2.092-2.431
	c-10.8,2.106-22.137,1.23-32.639,4.75c7.082,0.367,14.136-0.65,21.147-1.541c2.573,0.495,5.131,1.145,7.775,1.343
	c1.456,1.244,3.166,1.569,5.145,0.947C668.349,805.369,664.645,803.716,663.444,804.451z M523.896,810.317
	c-0.24-1.965-1.202-2.29-2.855-0.975C521.267,811.292,522.228,811.617,523.896,810.317z M2301.827,814.784
	C2302.067,819.477,2306.039,812.593,2301.827,814.784L2301.827,814.784z M419.589,822.219c3.435,0.876,5.372-1.145,4.509-4.481
	C421.681,818.332,419.08,819.095,419.589,822.219z M433.258,831.054c1.682-1.993-1.937-3.689-3.11-1.838
	C428.466,831.209,432.071,832.934,433.258,831.054z M397.735,839.21c-0.792,2.276-0.014,3.039,2.332,2.276
	C400.831,839.182,400.04,838.419,397.735,839.21z M438.715,842.787c3.294-0.085,6.658-0.254,9.683-1.668
	c-3.209-0.212-6.432-0.24-9.655-0.297C438.743,841.316,438.729,842.292,438.715,842.787z M426.572,844.554
	c2.912,0.17,5.965-0.254,7.69-2.898C431.378,841.684,428.24,841.783,426.572,844.554z M2388.365,843.324
	c-1.074,2.502,4.425,3.704,4.764,1.088C2392.563,842.504,2389.666,842.051,2388.365,843.324z M2400.677,844.455
	C2400.861,849.148,2404.904,842.278,2400.677,844.455L2400.677,844.455z M436.184,857.869c1.993-1.159,0.212-4.707-1.795-3.053
	C432.453,855.947,434.191,859.566,436.184,857.869z M2328.995,863.142c-1.329,2.488,4.114,4.043,4.509,1.3
	C2333.137,862.534,2330.296,861.841,2328.995,863.142z M2341.703,867.227c0.24,1.937,1.201,2.276,2.898,1.018
	C2344.304,866.266,2343.343,865.927,2341.703,867.227z M523.26,877.405c-4.467,0.127-9.259-0.198-13.245,2.177
	C514.539,880.02,519.062,879.087,523.26,877.405z M2465.603,881.221c-2.785-3.619-7.662-3.718-11.775-4.043
	C2457.404,879.313,2461.418,880.727,2465.603,881.221z M2508.575,883.964c-0.297-1.951-1.272-2.304-2.954-1.06
	C2505.861,884.826,2506.851,885.179,2508.575,883.964z M2054.876,892.855c-0.311,2.036,3.195,1.993,4.128,0.707
	C2059.272,891.498,2055.724,891.526,2054.876,892.855z M2495.175,902.142c-7.619-1.216-15.295-2.12-22.999-2.106
	C2473.309,904.528,2490.626,903.113,2495.175,902.142z M2440.597,904.248c-1.371,2.417,2.757,4.128,4.255,2.29
	C2446.053,904.248,2441.926,902.213,2440.597,904.248z M2363.91,908.56c0.17-0.763,0.537-2.304,0.721-3.068
	c-1.823-0.24-3.619-0.438-5.4-0.58c0.297,0.947,0.905,2.827,1.201,3.774C2361.564,908.631,2362.709,908.588,2363.91,908.56z
	 M2441.996,916.589c0.226,1.965,1.173,2.318,2.87,1.06C2444.583,915.656,2443.622,915.303,2441.996,916.589z M2469.165,919.232
	c1.498-2.12-2.205-4.184-3.478-2.12C2463.708,919.261,2467.794,921.127,2469.165,919.232z M395.29,931.389
	c0.763-1.965,0.127-2.615-1.937-1.965C392.604,931.347,393.254,932.011,395.29,931.389z M404.733,937.778
	c-4.184-0.014-8.594,0.452-12.086,2.983C396.817,940.62,401.114,939.998,404.733,937.778z M382.582,941.199
	c1.753-2.007-1.993-3.845-3.082-1.781C377.903,941.44,381.366,942.881,382.582,941.199z M369.747,942.811
	c1.611-2.021-2.007-3.675-3.124-1.753C364.969,943.079,368.616,944.761,369.747,942.811z M356.7,946.246
	c-8.962-1.117-18.277,0.876-26.095,5.386c-11.832,5.767-25.133,7.987-36.682,14.362C306.73,965.768,355.472,948.798,356.7,946.246z
	 M359.908,954.543c-0.283-1.937-1.258-2.233-2.94-0.905C357.237,955.547,358.226,955.858,359.908,954.543z M758.605,977.938
	c-2.686-0.947-6.135-1.131-8.736,0.113C751.099,980.256,757.079,979.521,758.605,977.938z M2521.891,1020.854
	c-4.594-0.184-10.149,2.516-10.277,7.676c-0.919,0.127-2.742,0.353-3.661,0.481c21.689,5.695,20.067,6.336,21.175,11.591
	c-13.964,2.918-41.26-7.347-80.771-14.192c-3.873-0.975-7.549,0.721-11.266,1.343c-4.325,0.198-8.623-0.523-12.92-0.367
	c2.39,3.749,12.348,2.243,49.574,14.079c-17.031,12.001-26.494,0.26-45.093,1.753c-7.845,0.58-15.507-2.149-23.338-1.399
	c1.993,2.813,4.552,5.244,6.361,8.227c8.679,0.58,17.302,1.979,25.939,3.152c7.52,1.074,15.252-0.763,22.645,1.527
	c4.905,1.654,9.966,0.792,14.984,0.311c8.623,0.664,17.316,0.636,25.897,1.866c-3.181,3.011-9.584,1.046-10.404,6.615
	c3.223,2.488,7.549-1.032,11.337-0.156c-0.552,7.733-7.129,7.243-27.028,9.4c19.79,4.566,39.82,8.623,60.119,10.248
	c2.233,0.438,5.23,0.042,6.658,2.318c-24.501,3.408-66.298-12.947-87.627-11.181c-21.673,4.709-40.021-5.86-57.405,1.413
	c-6.092,2.785-12.807,3.718-18.857,6.559c-7.209,1.626-14.715,0.905-21.981,2.078c-10.701,5.739-24.709-5.386-34.335,3.647
	c56.988,9.557,75.33,5.144,93.352,15.86c-7.322,1.272-14.828,1.258-22.009,3.237c-12.666-0.509-25.105-3.661-37.742-4.721
	c15.45,5.357,31.848,6.743,48.033,8.269c3.93,0.693,7.591-1.018,11.252-2.205c11.817-0.636,23.465,2.898,35.297,2.135
	c4.891-0.057,10.107-0.919,14.729,1.258c-0.014,0.678-0.028,2.05-0.042,2.742c-16.089,8.618-103.051-3.465-134.671-10.983
	c10.655,6.905,9.66,8.839,26.575,10.008c51.354,10.627,97.029,7.623,112.11,8.665c-1.827,4.246-48.487,2.871-54.083,2.403
	c-4.58-0.325-9.103,1.258-13.641,0.495c-9.174-1.484-18.108-4.778-27.494-4.453c4.128,1.838,8.651,2.417,12.962,3.746
	c7.987,6.87,21.048,5.47,27.451,14.772c-15.917,0.212-31.169-5.753-47.029-6.474c-20.553-1.06-39.834-9.089-59.992-12.326
	c5.728,6.104,81.269,24.668,82.27,24.935c-37.229-5.252-100.258-20.547-113.001-26.971c-1.823,0.721-3.619,1.428-5.414,2.078
	c0.891-0.947,1.837-1.88,2.799-2.799c-18.518-0.226-35.339-9.23-53.588-11.252c-0.58,0.537-1.739,1.597-2.318,2.12
	c-8.552-7.563-20.087-9.146-30.787-11.577c0.367,1.258,0.806,2.488,1.414,3.703c-21.21-0.891-28.609-2.433-35.523-0.834
	c14.853,5.416,206.261,43.653,226.114,61.759c-14.917-0.234-48.238-8.644-85.549-13.811c26.872,9.358,55.822,11.224,82.581,21.119
	c7.11,2.785,14.546,4.566,22.052,6.022c-3.068,0.198-6.107,0.297-9.104,0.537c3.209,1.993,6.714,3.746,9.188,6.757
	c-19.673,6.152-33.481-6.323-129.228-25.119c-9.711-1.781-19.38-4.057-29.233-4.849c14.774,5.774,45.204,8.585,53.984,14.503
	c-1.993,0.41-3.972,0.792-5.923,1.131c32.244,8.524,64.091,18.447,95.699,29.12c-0.834,0.551-2.502,1.668-3.336,2.219
	c8.298,3.916,17.429,5.372,26.109,8.213c-5.838-0.707-11.577-2.106-17.444-2.163c6.347,5.315,15.86,4.142,22.236,9.471
	c-6.191,0.226-12.312-1.442-18.475-0.65c-30.502,5.25-150.33-40.356-161.953-22.108c14.192,3.774,27.918,9.33,40.499,16.949
	c12.048,7.388,50.026,17.076,53.801,17.288c-2.855-3.421-8.199-2.163-11.012-5.584c22.407,1.112,86.893,25.276,110.909,30.123
	c2.742,0.777,9.301-1.597,8.015,3.407c-3.406,1.272-7.138,0.905-10.602,1.795c-2.092,1.498-3.548,3.661-5.188,5.584
	c-11.018-6.571-5.257-6.595-26.802-4.905c10.037,4.622,21.048,6.672,31.65,9.655c42.667,10.691,30.662,0.733,55.016,12.581
	c-8.661,5.146-43.799-7.967-68.685-11.464c2.389,3.124,5.259,6.064,6.29,9.994c-3.52,0.014-7.011-0.17-10.474-0.113
	c9.561,11.692,37.989,6.854,40.937,6.799c-5.315,5.781-14.192,2.46-20.355,6.22c3.435,0.438,6.898,0.679,10.361,1.244
	c-19.243,11.393-175.138-21.468-182.463-15.747c12.966,4.394,20.755,4.385,88.588,19.945c19.479,4.156,38.251,12.892,58.564,12.086
	c-7.407-4.566-17.048-3.548-24.186-8.269c0.042-0.622,0.127-1.866,0.17-2.488c5.957-2.661,55.636,6.287,61.985,7.421
	c-5.004,2.841-10.22,5.527-15.888,6.672c-2.078,0.523-4.481,0.537-5.88,2.375c10.757,3.958,22.391,3.308,33.488,5.626
	c10.983,2.078,21.571,7.294,32.978,6.531c-5.216-4.976-13.203-4.015-19.437-7.011c14.998,1.032,29.756,4.326,44.711,5.951
	c3.407,0.735,7.775,0.17,9.923,3.548c-9.386,1.357-18.32-3.294-27.649-2.841c-4.99,0.325-7.888,4.764-10.743,8.241
	c18.993,5.466,19.684,5.75,19.804,11.62c-14.986,2.648-54.865-11.117-84.079-14.744c-6.672,2.219-13.599,1.329-20.454,1.668
	c4.862,3.542,17.342,3.413,49.998,13.98c-9.81,6.573-22.038,3.774-32.88,2.106c-5.937-1.442-12.015-0.523-18.009-0.721
	c-1.852-1.385-3.421-3.011-5.159-4.425c1.145,1.399,2.346,2.827,3.576,4.241c-5.654-0.551-11.28-1.583-16.963-1.173
	c1.767,2.488,3.944,4.622,6.304,6.601c-0.975,0.537-1.937,1.088-2.855,1.654c14.15-0.184,27.96,4.594,42.153,3.534
	c6.658-0.495,12.962,3.152,19.635,1.937c4.384-0.724,26.435,0.06,31.155,2.106c-4.17,1.357-10.63,0.975-10.446,7.011
	c3.576-0.396,7.125-1.032,10.729-1.399c0.833,7.495-8.621,8.365-27.211,9.4c38.335,9.574,57.367,9.419,65.674,11.252
	c0.282,0.382,0.834,1.159,1.117,1.541c-24.22,2.998-64.455-12.488-86.411-11.309c-15.549,3.379-31.184-1.103-46.761-1.47
	c-4.552-0.452-8.58,1.908-12.666,3.449c-26.29,10.779-28.048,5.34-38.124,8.326c-14.208,4.755-28.178-5.398-35.777,3.746
	c71.211,8.992,78.646,7.298,93.917,15.464c-8.114,1.06-16.2,2.389-24.299,3.308c-27.127-2.617-57.156-9.612-66.409-8.397
	c25.854,4.707,51.722,9.796,77.944,11.888c4.863,0.919,8.906-3.138,13.754-2.36c12.821,0.495,25.529,3.35,38.407,2.134
	c3.322,0.255,9.64-0.933,9.994,3.845c-22.16,15.697-199.269-23.12-202.621-23.791c-48.294-7.905-38.502,0.264-78.495-4.297
	c-487.675-55.396-454.081-54.115-460.541-48.966c-7.252,5.499-17.062,3.661-24.978,7.591c-12.13,6.154-26.146-1.974-33.911,8.128
	c65.182,0.142,77.435-4.092,92.716,2.884c-7.209,2.149-14.418,4.326-21.656,6.333c-22.151,1.527-44.457-1.753-66.537,0.735
	c30.137,1.187,60.529,3.887,90.567-0.141c-3.873-0.353-7.746-0.693-11.563-1.258c12.821-2.53,26.01-1.725,38.986-2.799
	c6.983-0.65,14.319-3.859,21.161-0.792c-1.922,3.788-6.206,4.82-9.98,5.753c-72.92,17.07-179.915-8.805-236.433,1.767
	c-35.245,8.079-531.93,9.754-547.503,16.355c-52.34-5.373-476.351,40.545-481.871,45.729c22.815,3.308,45.192-4.029,67.639-6.828
	c1.002-0.12,195.355-19.041,208.19-19.606c-51.807,5.668-103.473,13.203-155.436,17.585c-85.791,6.057-104.626,16.362-148.524,15.21
	c-7.577-0.057-15.083-1.937-22.66-0.947c-7.93,0.41-15.775,1.838-23.691,2.276c-3.166,1.47-6.418,3.096-10.022,2.983
	c-71.751,2.294-219.724,33.086-271.179,28.215c0.014-0.509,0.042-1.541,0.057-2.05c3.591-0.071,7.181-0.057,10.771-0.254
	c-1.779-4.448-16.542-0.922-27.042-1.922c4.933-1.838,10.347-2.516,14.744-5.64c-2.884-2.573-6.898-2.488-10.46-3.237
	c11.464-4.269,23.677-6.884,34.152-13.528c12.779-8.029,29.063-8.001,41.389-16.779c-8.778-2.431-18.447,3.478-26.589-1.427
	c10.404-1.824,21.189-1.626,31.339-4.778c3.138-0.269,3.972-4.891,0.339-5.131c-10.234-2.912-20.567,1.456-30.844,1.88
	c6.689-3.701,40.987-10.272,48.514-11.577c4.424-0.678,8.284-4.325,6.912-9.089c-20.998-2.01-75.042,19.002-87.486,19.352
	c4.852-9.126,25.198-11.368,34.223-16.525c-9.54-7.275-46.331,12.233-47.977,12.779c26.848-29.853,80.874-11.333,100.01-24.568
	c3.689-2.587,4.34-7.888,8.453-9.952c6.531-3.845,12.468-9.287,15.606-16.298c-19.606-2.205-38.308,8.043-57.857,4.891
	c-5.259-2.177-10.771-3.449-16.44-3.93c3.873-2.417,8.185-4.693,12.92-4.114c12.864,0.735,25.091-4.538,37.898-4.453
	c4.622-0.664,9.796-2.248,12.227-6.587c-3.788-0.466-7.619-0.495-11.436-0.481c0-0.339,0-1.004,0-1.329
	c30.67-1.979,11.959,2.756,45.531-1.456c0.792-1.922,2.064-4.043,4.495-3.096c32.641-3.443,27.004,1.694,37.855-5.244
	c6.545-4.326,14.998-3.958,21.514-8.354c8.17-4.735,18.009-3.407,26.801-5.668c4.721-3.039,10.856-2.983,15.139-6.658
	c-2.431-0.184-4.849-0.127-7.266,0c0.58-0.989,1.753-2.954,2.332-3.93c-21.366,0.276-69.261,15.857-104.477,14.786
	c-7.718-0.226-15.281,1.315-22.758,2.926c-3.661,1.159-6.658-1.512-9.895-2.629c-2.756-0.523-5.584-0.452-8.368-0.622
	c0.693-2.106,1.47-4.198,2.205-6.262c-2.078-1.187-4.085-2.629-6.432-3.195c-7.223,2.643-12.807,8.156-18.673,12.92
	c8.012-39.364,177.067-45.019,271.617-57.391c88.073-11.524,236.55-25.813,237.55-25.882c3.124,0.198,5.004-2.728,7.831-3.449
	c3.308-0.834,6.714-1.216,10.107-1.696c-0.028-0.24-0.099-0.735-0.127-0.99c-16.845,0.736-204.21,15.654-330.803,36.371
	c-11.492,2.318-23.197,0.622-34.802,1.244c-11.789-0.057-23.762,2.347-35.382-0.481c-4.651-0.664-9.259,0.693-13.881,1.06
	c4.538-1.23,9.117-2.375,13.471-4.198c0.014-0.905,0.028-2.728,0.028-3.647c-10.701-1.71-22.419,0.353-32.272-5.315
	c41.334,1.002,46.475-6.133,69.505-4.41c27.367-11.577,58.013-5.258,86.355-12.34c-41.296-1.146-19.641,1.01-63.455,0.071
	c-2.036-0.707-6.008-0.283-5.838-3.251c2.813-0.622,5.725-0.678,8.58-1.046c-8.086-1.3-16.341,0.212-24.37-1.47
	c4.99-3.463,11.789-1.88,17.104-4.792c-2.954-2.219-6.658-2.657-10.121-3.534c11.408-3.873,23.72-5.428,34.307-11.549
	c-38.73,1.393-81.114,11.743-99.869,8.496c-7.902-1.668-15.535,1.993-23.423,2.036c1.894-3.93,7.591-2.813,11.026-4.919
	c-0.466-2.488-1.555-4.905-1.329-7.449c9.294-14.968,16.568-7.427,80.588-19.154c26.306-5.159,53.405-4.382,79.414-11.153
	c-6.638,0.233-58.416,3.714-64.939,2.7c-8.601,0.129-53.772,0.028-53.772,0.028c-0.961-1.385-1.908-2.742-2.869-4.085
	c-1.866-0.057-3.718-0.113-5.569-0.156c44.069-11.921,53.191-6.447,56.514-16.199c-5.683-1.329-11.351,0.664-17.033,0.636
	c-1.541-1.371-2.94-2.841-4.368-4.269c14.853-0.651,8.697-1.411,82.298-10.743c68.31-8.964,57.107-6.202,61.844-12.878
	c-16.539-2.813-32.795,2.629-49.263,3.237c-57.144,8.488-50.486,6.657-56.345,10.347c-6.05-3.689-13.415-0.41-20.002-2.064
	c0.226-0.509,0.693-1.527,0.919-2.036c10.489-2.389,21.401-2.177,31.918-4.439c-5.782-0.523-11.648-0.141-17.359-1.371
	c15.592-2.332,31.537,0.735,46.987-2.87c-2.502-3.704-8.156-2.389-11.931-3.944c8.567-5.972,6.024-1.077,40.64-5.569
	c6.488-0.961,13.669,1.018,19.465-2.926c-11.875-0.137-18.271-3.365-46.648,1.258c-4.41,0.65-8.397,3.166-12.934,3.068
	c-52.737,1.079-189.495,26.13-214.933,25.374c-20.777-0.989-53.333,7.292-55.624,0.82c3.746-0.226,7.52-0.226,11.266-0.551
	c-4.367-4.24-16.645-0.757-27.946-1.555c5.032-2.318,11.577-1.908,15.238-6.644c-3.138-1.145-6.446-1.696-9.697-2.361
	c6.078-3.294,13.132-4.128,19.465-6.828c9.824-3.477,18.164-10.164,28.286-12.906c8.976-3.294,19.21-4.396,26.815-10.602
	c-8.411-2.092-17.048,2.403-25.289-0.466c-0.283-0.339-0.82-1.018-1.103-1.357c11.323-1.272,23.069-1.286,33.855-5.357
	c0-0.905,0-2.714,0-3.619c-10.672-4.029-21.628,1.117-32.455,0.777c41.648-14.176,56.021-5.961,54.762-20.242
	c-18.369-2.29-75.544,19.223-87.472,19.465c8.241-11.111,24.087-9.768,34.618-17.274c-15.863-4.24-41.155,11.074-47.538,13.075
	c3.633-4.453,8.99-6.884,13.796-9.81c22.44-13.313,38.848-4.417,75.414-10.687c16.506-3.363,12.189-9.906,18.037-13.189
	c6.672-3.986,13.09-9.386,16.143-16.723c-19.536-2.12-38.152,8.015-57.631,4.947c-5.174-2.078-10.545-3.491-16.115-3.873
	c3.534-3.209,8.382-4.622,13.104-4.198c12.51,0.594,24.384-4.495,36.838-4.424c4.679-0.622,10.248-2.064,12.496-6.686
	c-3.746-0.777-8.057,0.693-11.408-1.456c19.897-2.236,13.577,1.947,45.927-1.739c0.707-1.145,1.442-2.276,2.163-3.378
	c53.441-1.029,23.705-1.813,53.942-9.994c5.428-1.23,9.641-5.782,15.366-5.979c7.153-2.559,15.337-0.565,22.038-4.481
	c3.788-2.149,8.835-1.795,11.846-5.244c-2.643-0.156-5.273,0.042-7.888,0.339c1.244-1.315,2.417-2.686,3.534-4.099
	c-16.129-0.362-59.425,11.921-88.701,14.277c-10.927,0.961-22.052-0.537-32.809,2.078c-4,0.565-8.453,2.87-12.213,0.353
	c-3.59-2.431-8.015-2.12-12.128-2.474c0.721-2.007,1.484-3.986,2.248-5.965c-2.29-1.173-4.424-3.548-7.167-3.152
	c-7.068,2.559-11.973,8.566-18.348,12.213c8.539-23.542,80.302-36.707,105.212-38.873c6.724-0.341,299.094-35.586,318.661-33.883
	c-2.601-1.809-5.711-2.94-7.76-5.428c0,0,51.427-4.467,89.903-9.457c-6.536,0.308-199.977,16.384-299.761,33.544
	c-9.358,1.329-18.744,3.576-28.257,2.672c-14.602-0.707-29.176,1.244-43.764,0.947c-6.135-1.201-12.312-1.866-18.574-1.201
	c3.223-0.975,6.545-1.64,9.598-3.067c6.813-8.609-16.091-0.696-31.099-8.976c4.396-0.24,8.778,0.212,13.174,0.24
	c19.21,0.339,37.855-6.927,57.122-4.665c-0.933-3.576-1.965-7.11-2.756-10.701c-0.58-0.551-1.753-1.64-2.332-2.177
	c-3.605,0.636-8.298,3.591-10.361-1.032c3.788-0.565,7.577-0.961,11.379-1.357c-1.527-5.923-3.336-11.761-5.202-17.571
	c-9.344,1.074-18.617,3.52-28.102,2.799c-7.04,0.085-14.093,1.852-21.133,0.466c-8.001-2.078-15.747,2.714-23.776,1.484
	c3.209-2.488,7.435-2.827,11.139-4.269c-0.297-2.643-1.838-5.456-0.848-8.057c8.388-12.126,14.05-8.942,54.578-14.376
	c-0.735-4.156-1.965-8.298-4.128-11.931c-3.025-1.597-6.545-0.778-9.81-0.862c-0.975-1.357-1.951-2.686-2.926-4
	c-1.173,0.014-3.506,0.014-4.665,0.028c4.566-1.767,9.273-3.181,14.107-4.029c-12.531-29.789-35.544-73.457-61.038-89.719
	c0.763,7.577,2.403,15.04,3.322,22.617c-2.389-0.58-4.764-1.173-7.153-1.696c1.498,7.661,3.407,15.238,4.679,22.942
	c-2.445-1.611-4.82-3.322-7.294-4.863c0.269,2.078,0.58,4.17,0.876,6.276c1.64,0.466,3.279,0.975,4.905,1.513
	c-1.06,1.442-2.53,2.474-3.986,3.491c0.636,4.34,1.442,8.651,2.149,12.991c-2.502-2.516-4.877-5.145-7.478-7.534
	c1.06,9.202,2.969,18.292,4.552,27.423c-2.29-2.474-4.396-5.117-6.785-7.506c2.841,8.496,5.739,18.603,0.382,26.745
	c-10.743-16.311-19.582-47.806-16.27-79.739c-0.693,0.961-1.371,1.908-2.05,2.87c-1.145-2.304-2.262-4.608-3.477-6.856
	c-4.269,7.393-4.891,16.27-8.665,23.748c-0.99-3.463-1.767-6.955-3.082-10.305c-3.053,8.821-4.792,17.995-6.361,27.183
	c-2.248-4.509-2.672-9.612-3.944-14.418c-2.926,11.167-3.831,22.758-4.099,34.265c-2.601-5.414-3.704-11.351-5.485-17.048
	c0.919,11.832,4.283,25.487-3.689,35.721c-9.984-24.189-7.578-65.896,17.118-98.285c-4.354,2.855-8.326,6.248-12.736,9.033
	c0.509-2.954,1.159-5.88,1.753-8.807c-6.912,4.17-13.33,9.089-20.341,13.076c1.046-3.124,2.304-6.163,3.336-9.287
	c-7.944,4.439-14.941,10.39-22.914,14.786c1.329-2.997,2.912-5.866,4.311-8.835c-6.955,5.994-14.744,12.666-24.624,11.733
	c8.655-15.236,39.768-43.24,77.718-50.634c1.937-0.481,4.382-0.495,5.188-2.728c-7.704-1.201-15.521-1.258-23.296-1.046
	c1.611-2.318,3.336-4.566,4.976-6.87c-8.453,0.226-16.751,1.922-25.048,3.364c2.53-2.87,5.428-5.343,8.17-7.987
	c-9.358,1.258-18.433,3.887-27.536,6.262c3.336-3.746,7.435-6.672,11.323-9.796c-11.294,2.332-21.981,6.743-32.555,11.238
	c2.969-3.746,6.856-6.573,10.093-10.036c-9.598,4.905-19.225,12.892-30.788,10.361c11.535-13.994,28.95-21.387,45.955-26.335
	c36.315-9.891,56.603-1.326,74.693,13.514c-7.912-38.995,10.634-75.995,20.129-84.051c2.7,7.987,0.057,16.185-3.59,23.352
	c2.276-1.965,4.453-4.057,6.743-6.008c-1.993,7.718-4.354,15.337-6.587,22.985c2.403-1.71,4.735-3.52,7.181-5.159
	c-1.315,6.587-3.591,12.934-5.018,19.493c2.346-1.06,4.665-2.233,7.011-3.322c-2.135,6.488-4.467,12.906-6.304,19.479
	c2.219-0.594,5.089-0.368,6.276-2.785c20.945-29.55,69.28-43.159,97.607-35.438c-8.1,8.609-20.963,8.185-31.862,8.312
	c0,0.226,0.014,0.679,0.014,0.905c4.665,0.424,9.33,0.919,13.938,1.838c-3.986,2.349-22.442,4.202-31.72,9.527
	c4.552,0.424,9.132,0.622,13.655,1.371c-8.128,4.128-17.429,5.654-25.119,10.729c3.52,0.636,7.082,1.06,10.602,1.753
	c-7.69,3.831-15.874,6.771-22.942,11.761c2.615,0.792,5.244,1.555,7.845,2.403c-2.983,2.417-6.248,4.467-9.315,6.757
	c28.116-11.351,60.19-14.037,89.323-5.004c-6.969,7.365-18.009,6.601-27.225,5.569c3.039,1.668,6.22,3.096,9.188,4.919
	c-9.132,0.99-18.334,0.848-27.48,1.753c2.968,1.866,6.036,3.619,8.807,5.767c-8.185,0.664-16.426,0.65-24.582,1.724
	c1.725,1.371,3.76,2.29,6.008,2.375c20.241,2.058,48.543,11.732,56.967,20.794c-9.542,3.576-19.818,0.806-28.512-3.718
	c2.969,2.629,6.008,5.188,8.679,8.128c-8.877-1.753-17.571-4.354-26.49-5.852c1.993,2.629,4.255,5.061,6.389,7.605
	c-7.859-1.414-15.563-3.59-23.437-4.947c1.385,2.53,2.926,4.976,4.34,7.506c-7.662-1.823-15.182-4.156-22.815-6.05
	c0.551,2.417,1.103,4.863,1.668,7.294c-7.831-1.484-15.578-3.364-23.352-5.075c28.512,24.229,49.517,56.119,65.731,89.55
	c8.015-1.442,16.44-2.163,23.819-5.81c0.325-0.947,0.961-2.855,1.286-3.817c-5.485-0.678-10.955,0.325-16.369,1.131
	c-1.725-1.597-3.435-3.181-5.216-4.707c4.386-0.039,134.452-17.576,135.462-17.712c-0.141-2.488-0.297-5.004-1.032-7.379
	c0,0-89.123,12.227-89.125,12.227c-2.884,0.085-5.018,3.675-7.944,2.149c-5.654-2.233-11.803,0.41-17.571-1.216
	c-5.793-5.321,47.553-5.246,62.367-11.719c-4.311-1.343-8.778-2.05-13.189-2.87c3.859-2.361,8.283-4.311,12.92-3.534
	c12.863,1.541,25.43-3.138,38.294-2.403c4.834-0.283,10.517-1.498,13.203-5.994c-4.057-0.707-8.34-0.325-12.171-2.021
	c4.834-0.523,9.74-0.523,14.588-0.042c0.254-5.513,0.113-11.04,0.495-16.539c-3.407-3.435-8.439-3.039-12.835-3.859
	c0.82-1.951,1.696-3.887,2.53-5.824c-2.318-1.258-4.453-3.718-7.266-3.393c-7.068,2.233-12.425,7.563-18.687,11.252
	c3.857-12.652,23.395-18.027,36.074-21.571c-1.831-106.102-15.389-254.986-79.329-339.723c-2.516,17.486-4.721,35.028-7.011,52.542
	c-5.018-3.011-9.428-6.898-14.277-10.149c-1.555,18.009-2.912,36.046-4.523,54.055c-4.594-5.343-7.775-11.761-12.581-16.949
	c-2.728,18.108-4.523,36.343-7.308,54.451c-4.637-6.601-6.601-14.701-11.422-21.175c-2.502,20.935-5.103,41.856-7.548,62.791
	c-3.986-7.958-6.517-16.539-10.263-24.596c0.893,12.781,4.126,46.117-15.719,61.547c-14.276-63.897-5.964-128.954,16.779-181.276
	c-2.191,2.332-4.269,4.792-6.517,7.096c-1.06-6.601-1.852-13.245-2.516-19.889c-13.203,15.097-24.172,31.975-34.025,49.404
	c0.014-9.146,0.297-18.292,0.58-27.423c-13.316,16.539-22.151,36.103-32.215,54.677c-0.452-11.153,0.664-22.278,1.187-33.403
	c-18.09,29.419-26.427,59.801-30.943,69.562c-1.597-12.637-0.042-25.388-0.565-38.053c-4.956,24.801-8.496,59.228-30.872,72.417
	c-2.796-82.701,44.082-163.532,103.572-199.624c-12.694,3.576-24.893,8.792-37.488,12.722c3.166-6.319,7.336-12.058,10.573-18.334
	c-17.981,4.806-35.594,10.941-53.574,15.775c5.174-6.559,10.884-12.68,15.818-19.437c-20.398,6.375-40.824,12.637-61.193,19.097
	c5.951-6.729,12.708-12.722,18.376-19.705c-19.04,11.184-41.78,20.496-62.437,11.21c44.426-35.464,113.43-60.095,178.265-58.889
	c9.909-0.141,19.733,1.131,29.6,1.767c0.905-0.608,2.714-1.795,3.619-2.389c-15.479-8.623-32.71-13.302-49.701-17.896
	c4.947-4.156,10.8-7.068,15.676-11.309c-18.701-5.089-38.067-7.506-57.405-8.425c7.393-5.414,16.426-7.831,24.455-12.1
	c-21.161-3.689-42.69-4.184-64.119-4.283c9.951-5.965,21.09-9.485,31.636-14.206c-26.462-1.244-53.164-0.41-79.259,4.424
	c11.987-7.591,25.176-12.906,37.983-18.871c-26.296,6.704-57.089,18.926-80.206,4.919c64.129-40.251,201.526-38.898,254.64,33.728
	c4.311,5.513,7.379,11.817,11.139,17.698c6.899-80.86,59.018-144.138,95.642-168.427c3.039,19.733-9.909,37.149-23.79,49.602
	c7.195-3.025,13.782-7.28,20.963-10.319c-9.485,15.365-19.804,30.208-29.035,45.715c6.658-2.12,12.821-5.527,19.465-7.704
	c-7.93,13.641-17.062,26.575-24.921,40.244c6.05-1.004,11.931-2.855,17.924-4.17c-8.496,12.991-17.882,25.374-26.49,38.294
	c3.93,0.452,7.888,0.933,11.86,0.735c6.371-3.739,35.574-33.311,106.258-39.834c63.798-5.514,99.199,8.574,128.578,23.366
	c-21.013,15.641-58.243,1.547-79.089-2.827c12.383,5.584,25.147,10.531,36.767,17.656c-25.826-4-52.147-4.99-78.213-3.053
	c10.319,5.018,21.515,8.142,31.579,13.754c-21.387,0.396-42.888,1.131-63.95,5.174c7.563,4.509,16.44,6.46,23.72,11.535
	c-19.224,1.894-38.633,3.986-57.165,9.711c5.216,3.704,10.786,6.898,15.959,10.673c-8.976,3.548-18.617,5.103-27.522,8.877
	c68.482-6.962,131.877,4.765,196.288,45.771c-18.794,11.287-44.172,2.636-63.328-7.209c6.163,6.559,13.302,12.1,19.733,18.376
	c-20.61-4.184-40.838-10.15-61.462-14.277c4.764,6.347,11.111,11.309,15.79,17.712c-18.009-3.449-35.707-8.481-53.701-12.001
	c1.654,2.629,2.969,5.979,6.191,7.025c40.075,16.035,90.271,49.256,113.82,81.959c-22.744,3.958-43.354-10.135-58.875-25.19
	c4.17,7.817,9.513,14.956,13.471,22.886c-18.532-9.513-36.046-20.949-54.564-30.462c3.11,7.435,7.506,14.249,10.616,21.684
	c-16.44-8.609-32.3-18.277-48.712-26.943c1.937,6.785,4.651,13.316,6.446,20.143c-15.662-8.877-30.491-19.182-46.082-28.172
	c-0.184,5.711-0.028,11.436-0.042,17.147c-15.874-7.874-30.83-17.557-46.789-25.289c37.633,60.395,68.558,124.782,92.985,292.227
	c5.294-0.978,27.269-12.279,36.3-5.923c-11.959,3.11-23.578,7.393-35.608,10.22c1.682,9.895,3.152,19.832,4.636,29.77
	c8.578-1.264,318.517-19.481,335.51-18.348c1.97-0.743,98.766-5.752,104.35-5.909c1.654-0.481,2.629-2.078,4.071-2.954
	c4.439-2.488,10.46,2.629,14.121-1.668c-24.32-1.618-195.741,6.924-217.873,7.237l-1.103-0.297
	c-3.492,0.636-7.026,0.806-10.559,0.933c-37.573,1.527-74.848,6.672-112.251,10.347c-10.588,1.527-21.175-0.947-31.791-0.749
	c-12.298-0.749-24.921,1.329-36.88-2.29c-4.184-0.848-8.467-0.127-12.68-0.085c3.986-1.739,10.305-0.608,12.227-5.174
	c-0.353-0.523-1.046-1.569-1.385-2.092c-10.418-1.696-22.136-0.382-31.226-6.785c37.692,3.551,37.018-1.41,60.02-1.272
	c4.552-0.057,9.245,1.753,13.655-0.042c13.217-4.919,27.565-4.637,41.474-4.637c28.679,0.468,153.291-15.62,163.027-12.454
	c3.962,0.918,512.616-16.715,513.62-16.821c0.834-3.774,3.548-6.29,7.605-5.541c12.38,2.634,28.141,3.219,61.024-0.099
	c-4.589-5.309-10.976-3.077-35.735-5.103c-3.746,0.721-7.52,1.145-11.266,0.212c-9.315,4.142-19.62,4.552-29.642,4.326
	c3.025,0.396,6.05,0.65,9.117,1.046c-1.654,1.329-3.265,2.714-5.075,3.817c-1.428-0.481-2.714-1.216-4-1.88
	c-3.901,2.898-9.089,1.696-13.047-0.368c-9.386-1.258-18.928-0.466-28.257-2.205c2.05-0.834,4.128-1.668,6.29-2.233
	c-10.616-1.046-21.317-2.007-31.975-1.187c5.159,1.371,11.931-0.792,15.719,3.774c-18.089,0.998-33.968-2.988-37.686-3.166
	c-9.221,3.216-105.99,2.796-116.04,4.481c-4.764,0.679-9.556,0.99-14.334,1.032c-0.678-1.753-1.993-2.855-3.675-3.52
	c1.089,1.286,2.219,2.544,3.364,3.845c-18.915,0.47-53.993-2.76-61.985,2.191c-15.15-2.935-29.685,0.352-85.846,2.248
	c-2.87,1.244-5.612,2.785-8.538,3.873c-10.302-4.683-9.021-1.526-25.246-1.71c0.735,0.862,1.47,1.739,2.234,2.601
	c-5.259,0.806-10.658,0.848-15.846-0.339c-4.778-1.23-9.655,0.24-14.461,0.085c-139.577,13.682-177.996,10.512-245.056,16.85
	c-5.244,0.947-10.206-1.823-15.464-1.131c-9.429-0.481-18.984,2.771-28.229,0.212c-1.965,0.17-3.859,0.693-5.753,1.117
	c-1.456-0.834-2.884-1.654-4.326-2.46c1.951,0.113,3.449-0.509,4.495-1.88c-2.106-1.513-5.343-0.184-7.831-0.679
	c4.198-2.134,8.976-2.191,13.57-2.375c-1.371,0.905-4.057,0.721-4.326,2.742c14.223,6.362,268.588-13.353,284.622-14.701
	c-1.668-0.763-3.237-1.71-4.947-2.276c-3.555,0.294-25.309,3.177-35.226,1.668c-7.548-1.258-14.913,3.223-22.447,1.414
	c-5.937-1.272-12.029-0.339-18.037-0.721l-0.636-0.961l0.085-0.834c11.323-0.777,22.73-1.088,34.025-2.615
	c-7.879-0.784-47.328-0.232-51.185,2.756c5.16,0.82,10.757-1.244,15.606,0.933c-0.17,0.311-0.509,0.905-0.664,1.216
	c-30.261,1.219-22.761-1.318-27.918,3.944c-22.518,0.693-44.98,3.11-67.498,3.223c0.311-1.456,0.65-2.898,1.018-4.326
	c-3.082,0.382-6.149,0.721-9.216,0.99c1.569,1.004,3.096,2.036,4.622,3.152c-70.129,5.962-78.34,6.186-91.345,5.103
	c8.029-2.87,16.765-2.375,25.176-2.813c2.502-4.919,7.817-5.979,12.68-7.322c-2.219-0.848-4.453-1.597-6.615-2.559
	c3.223-0.099,6.941-0.735,9.103,2.29c53.069-7.678,153.609-13.15,190.351-13.74c11.294-0.339,22.617,0.58,33.911-0.255
	c5.64-0.636,11.266-1.993,17.005-1.484c9.471,0.749,18.843-1.597,28.314-1.145c4.255,0.17,8.439,1.244,12.722,1.187
	c4.453,0.085,8.142-3.237,12.623-3.011c4.792-0.254,9.33,1.724,14.107,1.739c264.478-10.944,250.923-11.69,250.923-11.69
	c-1.597,0.876-3.181,1.739-4.764,2.601c24.129-0.773,91.896-3.237,91.896-3.237c-3.958-0.382-8.057-0.212-11.789-1.739
	c-0.41-0.806-1.23-2.417-1.64-3.223c-9.089-0.509-18.178,0.339-27.268,0.057c-70.914,2.364-73.549-1.086-78.538,5.032
	c-4.665-3.124-10.291-3.647-15.634-4.665c5.004-0.382,10.036-0.551,14.998-1.385c-24.061-4.103-30.99,6.597-78.651,2.007
	c-0.141,0.721-0.424,2.163-0.565,2.898c-19.244,0.761-43.67-2.1-50.846-1.131c0.693,1.06,1.399,2.12,2.12,3.209
	c-4.142-0.523-8.114-1.795-11.987-3.279c-4.58,4.255-10.503,1.71-15.846,1.173c-8.326,3.265-17.599,4.764-26.363,2.346
	c-6.318,3.673-45.785,6.968-50.125,6.856c-6.714-0.042-12.948-3.477-19.719-2.813c-46.315,1.388-194.703,13.79-226.878,15.705
	c-45.691,2.741-55.848-1.129-100.717,3.76c-9.061,0.735-18.164,2.304-27.254,0.961c-6.488,0.042-13.033,0.99-19.451-0.495
	c-8.156-2.474-16.355,1.343-24.624,0.551c2.474-3.562,7.817-2.431,11.535-3.972c-0.339-2.615-1.343-5.244-0.862-7.888
	c9.652-13.664,13.287-6.466,91.006-15.634c22.899-2.479,66.057-1.828,76.941-5.456c-23.621-1.131-47.326-0.057-70.975-1.272
	c-7.914-0.143-54.578-2.898-54.578-2.898c-0.693-1.329-1.399-2.643-2.078-3.958c-1.866-0.198-3.732-0.382-5.584-0.58
	c31.841-8.673,45.482-3.496,56.613-10.616c0.113-0.749,0.339-2.276,0.452-3.025c-6.714-0.735-13.429,0.198-20.129,0.325
	c0.735-0.792,1.47-1.583,2.233-2.347c-1.315-0.792-2.601-1.555-3.873-2.361c0,0,147.641-12.01,204.034-13.372
	c0-2.318,0.014-4.636,0-6.941c-114.545-0.383-133.708,12.093-170.01,12.581c-2.276-0.382-3.901,1.23-5.569,2.474
	c-2.007-3.506-6.22-4.354-8.835-7.223c17.542-2.94,35.438-2.629,53.065-4.919c108.888-13.001,90.777-6.708,130.882-8.58
	c-2.939-33.261-9.694-77.084-30.01-103.671c-1.428,6.644-1.965,13.443-2.884,20.172c-1.979-1.06-3.901-2.163-5.866-3.195
	c-0.438,6.757-1.06,13.5-1.569,20.256c-1.753-1.71-3.378-3.52-5.089-5.23c-1.187,6.856-1.894,13.768-2.813,20.666
	c-1.569-2.601-3.011-5.273-4.693-7.775c-1.06,7.817-1.725,15.677-2.87,23.479c-1.965-2.672-2.912-5.895-4.128-8.92
	c0.707,8.411,0.763,18.391-6.163,24.427c-5.584-22.165-3.067-46.012,4.693-67.371c0.452-2.912-1.569-5.711-2.106-8.552
	c-5.287,5.004-8.467,11.648-12.821,17.387c-0.226-3.265-0.184-6.531-0.226-9.782c-4.764,6.545-8.071,13.98-12.468,20.751
	c-0.24-3.774,0-7.534-0.057-11.309c-5.329,8.142-8.086,17.542-11.916,26.391c-0.24-2.785-0.325-5.584-0.693-8.34
	c-3.039,7.831-3.845,17.5-11.69,22.405c-0.071-1.399-0.198-4.212-0.254-5.612c-13.599,0.678-26.999,4.453-40.654,3.52
	c13.287-3.124,27.07-3.901,40.668-4.806c-0.102-17.75,11.24-46.647,29.501-63.54c3.336-3.223,7.308-5.668,10.786-8.736
	c-4.439,1.555-8.792,3.322-13.316,4.58c1.089-2.403,2.304-4.736,3.477-7.096c-6.983,2.304-14.008,4.439-21.062,6.488
	c1.908-2.431,3.873-4.834,5.668-7.351c-7.803,1.951-15.365,4.735-23.098,6.926c1.838-2.361,3.901-4.523,5.866-6.785
	c-7.28,3.463-15.959,7.478-23.861,3.52c36.047-28.176,77.548-22.707,83.782-22.914c-5.499-4.368-12.708-5.428-19.225-7.577
	c1.894-1.668,3.859-3.237,5.796-4.834c-7.209-1.498-14.517-2.389-21.797-3.364c2.587-1.696,5.372-3.082,8.015-4.707
	c-8.128-1.23-16.341-1.385-24.526-1.597c3.774-2.177,7.916-3.647,11.761-5.697c-10.05-0.382-20.087,0.226-30.024,1.626
	c3.916-2.799,8.467-4.424,12.779-6.474c-9.556,1.809-19.55,5.994-29.204,2.233c0-0.466,0-1.428-0.014-1.908
	c29.134-16.143,85.585-14.073,104.152,20.794c3.332-33.007,25.436-59.159,38.308-66c0.481,7.421-3.873,13.712-8.807,18.772
	c2.205-0.933,4.41-1.908,6.658-2.756c-3.025,5.739-7.026,10.87-10.036,16.609c2.262-0.594,4.509-1.272,6.771-1.866
	c-3.039,5.131-6.432,10.036-9.414,15.196c2.177-0.297,4.354-0.65,6.559-0.961c-3.223,5.188-7.124,9.923-10.149,15.238
	c5.909,0.735,9.641-4.424,14.517-6.714c22.688-12.111,57.384-13.685,83.316,0.127c-8.807,5.697-19.338,1.329-28.681-0.297
	c3.435,1.922,7.082,3.449,10.404,5.584c-9.641-0.65-19.309-1.428-28.964-0.749c3.774,2.149,7.93,3.477,11.761,5.541
	c-8.199,0.226-16.411,0.466-24.497,1.894c2.559,1.654,5.287,3.011,7.902,4.594c-7.167,1.131-14.433,1.753-21.401,3.916
	c1.781,1.47,3.647,2.884,5.442,4.354c-3.364,1.131-6.743,2.219-9.98,3.647c28.157-4.08,59.615,5.154,77.252,18.051
	c-7.577,4.255-16.27,0.99-23.691-1.823c1.923,2.007,3.972,3.887,5.895,5.923c-7.803-1.286-15.337-3.774-23.126-5.103
	c1.64,2.205,3.393,4.34,5.004,6.573c-6.912-1.187-13.627-3.336-20.567-4.396c0.551,0.594,1.654,1.795,2.219,2.389
	c17.048,7.619,33.926,17.726,45.234,32.922c-8.383,1.089-15.747-3.59-21.981-8.566c1.117,2.417,2.417,4.778,3.562,7.209
	c-7.209-3.675-14.008-8.114-21.204-11.789c1.357,2.855,2.827,5.682,4.17,8.566c-6.319-3.308-12.369-7.11-18.758-10.291
	c0.495,2.417,1.074,4.82,1.597,7.252c-6.078-3.364-11.846-7.252-17.769-10.885c-0.085,2.219-0.184,4.439-0.269,6.672
	c-6.135-2.884-11.789-6.686-17.952-9.499c25.807,40.498,33.372,93.654,33.869,101.395c42.398,0.454,585.583-22.911,605.064-18.8
	c18.082-1.712,90.69-0.213,141.357-0.099c0-0.198-0.028-0.58-0.042-0.778c-63.464-2.93-78.912-12.122-183.156-10.531
	c-218.441,2.608-303.519,3.409-308.455,0.042c124.837-16.852,515.624-5.965,555.391-8.708c0.665-0.834,2.007-2.488,2.686-3.308
	c3.166,1.258,5.782,3.887,9.457,3.746c12.976-0.749,25.967,3.788,38.944,2.375c4.026-2.088,103.541,10.971,141.823,15.691
	c0.042-1.852,0.056-3.689,0.071-5.513c-1.216-0.353-3.647-1.06-4.849-1.414c0,0-70.313-9.031-136.706-14.122
	c53.037,0.337,131.931,11.615,138.063,13.556c1.484-0.523,3.053-0.622,4.693-0.283c6.834-38.141,6.9-29.3,1.47-34.533
	c1.131,0.057,3.407,0.198,4.552,0.269c14.211-80.25,23.245-199.796-2.997-276.932c-1.781,3.166-3.378,6.418-4.976,9.669
	c-3.322-3.195-6.064-6.898-9.004-10.418c-10.178,13.16-19.917,26.66-30.18,39.75c-2.431-4.863-4.396-9.952-6.785-14.842
	c-9.937,13.726-18.532,28.441-29.021,41.729c-0.693-6.375-1.074-12.765-1.767-19.126c-11.535,12.779-20.384,27.833-31.734,40.796
	c0.113-7.803,0.806-15.578,1.159-23.352c-0.717,1.001-32.654,45.157-35.905,48.132c0.919-8.51,2.417-16.949,3.393-25.458
	c-8.411,18.667-19.695,40.272-41.375,44.33c8.906-37.891,37.919-83.919,66.325-113.057c2.601-2.078,2.658-5.527,3.039-8.566
	c-14.433,9.527-27.508,20.977-41.828,30.674c2.135-7.28,5.202-14.235,7.28-21.529c-16.086,11.351-31.141,24.13-47.185,35.551
	c2.53-7.407,6.403-14.249,9.004-21.613c-7.685,7.761-26.09,31.195-51.143,29.021c20.646-35.467,65.465-77.79,116.959-101.226
	c11.125-5.273,22.857-8.99,34.449-13.047c-9.089,0.339-18.037,2.036-27.013,3.251c2.643-5.513,6.488-10.319,9.428-15.676
	c-18.306,2.488-36.187,7.591-53.461,14.051c4.891-6.927,11.28-12.595,16.539-19.225c-19.493,4-37.926,11.86-56.26,19.38
	c6.262-8.736,14.489-15.761,21.741-23.607c-22.985,7.718-44.485,19.154-65.349,31.353c6.375-10.036,15.309-18.051,22.702-27.268
	c-16.436,12.113-42.068,36.963-65.788,31.692c47.156-58.128,137.148-94.312,204.84-75.923c4.891,1.64,9.117-2.346,13.019-4.707
	c-11.973-7.888-24.964-14.235-36.484-22.744c5.386-1.187,10.87-1.894,16.327-2.827c-11.379-9.443-24.822-16.171-36.329-25.487
	c6.46-0.58,12.963-0.339,19.451-0.594c-13.881-10.107-28.809-18.716-42.746-28.738c7.52,0.466,15.026,1.088,22.546,1.626
	c-15.51-6.24-34.308-14.166-39.552-33.869c37.721,6.123,106.947,38.512,146.446,108.223
	c3.298-89.171,118.544-152.823,208.643-145.824c-12.277,20.485-46.819,22.925-69.562,26.335c12.312,0.608,24.667,0.608,36.979,1.626
	c-3.817,2.559-8.566,2.884-12.779,4.424c-18.716,5.923-37.36,12.736-54.465,22.419c10.051,0.042,20.143-1.088,30.18,0.198
	c-17.005,9.499-35.721,16.256-51.355,28.116c8.312,0.127,16.652-0.113,24.964,0.707c-16.001,8.863-32.116,17.811-46.224,29.558
	c5.852,1.611,11.93,2.177,17.867,3.477c-12.68,10.673-25.854,21.133-35.947,34.449c2.276,0.707,4.75,1.06,6.743-0.608
	c53.817-31.898,125.433-44.988,197.504-28.922c-12.59,16.347-38.173,16.275-58.366,14.305c7.435,3.831,15.874,5.541,22.97,10.022
	c-19.493,2.347-39.015,4.396-58.479,6.898c6.418,4.128,13.74,6.615,20.172,10.729c-17.118,2.544-34.364,4.212-51.496,6.601
	c4.919,4.523,10.927,7.647,16.044,11.945c-12.75,1.47-25.67,1.414-38.35,3.35c64.204,6.298,139.428,62.247,165.896,131.829
	c-25.792-2.41-42.894-36.257-55.271-51.553c5.852,11.139,11.605,22.433,15.493,34.435c-7.093-6.421-24.394-27.59-53.603-48.881
	c4.764,9.527,10.362,18.673,14.065,28.695c-15.79-11.945-30.745-25.289-48.358-34.576c3.336,7.69,7.605,14.984,10.277,22.97
	c-14.857-10.8-30.165-21.26-47.043-28.625c1.541,5.824,3.491,11.535,4.75,17.443c-2.516-0.933-4.976-1.951-7.478-2.841
	c44.375,40.852,75.252,100.854,82.595,148.835c-20.029-5.519-30.956-28.599-36.795-48.528c0.099,8.651,0.679,17.288,0.693,25.939
	c-10.998-16.313-19.861-33.996-30.787-50.351c-0.693,7.676-0.636,15.394-0.876,23.098c-9.997-14.436-23.356-39.861-27.989-44.273
	c-1.272,6.121-2.12,12.326-3.817,18.334c-8.948-14.107-16.101-29.303-24.455-43.778c-3.124,4.382-5.428,9.273-8.213,13.867
	c-2.445-3.477-4.552-7.181-6.884-10.729c30.447,111.451,18.369,221.981,17.613,261.736c2.163,0.085,4.368,0.226,6.573,0.41
	c-2.304,0.339-4.622,0.523-6.898,0.735c-0.693,12.595-1.668,25.19-1.908,37.813c3.843,0.646,85.301,15.775,92.306,19.988
	c-31.395-2.968-62.14-10.573-93.055-16.553c-0.141,1.131-0.424,3.393-0.566,4.523c13.132,1.993,27.141,2.983,38.576,10.446
	c7.593,5.124,54.794,7.968,80.347,12.722c-14.517,0.466-28.738-3.704-43.198-3.873c3.916,2.46,8.665,2.262,13.033,3.336
	c8.467,6.262,21.811,3.661,28.356,12.821c-16.496,1.06-32.71-3.732-49.206-2.983c-20.214,0.325-39.679-6.531-59.709-7.534
	c4.468,2.893,46.978,12.792,83.796,17.981c-31.438-1.089-62.423-7.153-93.366-12.411c-0.24,2.997-0.452,5.994-0.65,9.004
	c1.001,0.178,71.768,9.93,85.068,20.85c-20.062,0.342-64.116-6.887-84.602-6.601c19.974,4.933,40.697,5.951,60.939,9.528
	c15.295,2.149,29.812,8.185,45.333,9.075c-3.887,0.382-7.789,0.523-11.662,0.848c3.491,1.739,7.025,3.407,10.192,5.753
	c-17.71,9.481-52.365-6.825-107.233-11.577c0.042,2.332,0.099,4.665,0.127,7.025c13.061,2.983,26.307,5.159,39.382,8.1
	c17.246,3.675,34.237,8.481,51.51,12.058c-0.198,1.216-0.382,2.431-0.523,3.661c18.014,5.741,16.026,1.243,25.727,5.697
	c-4.622,0.17-9.273,0.099-13.754,1.244c6.347,2.12,13.457,2.12,19.309,5.668c-6.927,0.707-14.037-0.792-20.794,1.258
	c-24.472,6.625-154.389-29.53-162.32-9.937c12.906,2.134,25.515,6.036,37.304,11.719c3.11,1.442,6.22,3.209,9.754,3.449
	c188.623,16.597,153.223,15.454,172.328,15.238c-0.184-0.777-0.579-2.332-0.763-3.11c1.498,0.127,3.039,0.269,4.594,0.424
	c0.071,0.975,0.212,2.926,0.282,3.901c16.765-1.852,32.993,8.17,49.701,4.439c5.273,0.763,10.291,2.728,15.464,4.029
	c0.608-0.82,1.852-2.445,2.474-3.265c-6.46-4.114-14.461-3.435-21.741-4.467v-0.283c7.322,0.17,14.588,1.131,21.896,1.739
	c5.23-16.313,9.839-32.837,15.578-48.98c-1.922-0.481-3.718-1.202-5.499-1.922c1.823,0.028,3.675,0.085,5.555,0.184
	c33.227-101.065,61.309-142.165,94.61-180.612c-8.948,7.011-16.949,15.182-25.685,22.448c-1.018-3.576-1.823-7.195-2.615-10.814
	c-8.524,7.888-16.482,16.355-25.147,24.073c0.283-4.382,0.778-8.75,1.088-13.132c-9.329,7.223-17.415,15.917-26.716,23.168
	c0.89-4.919,2.375-9.711,3.336-14.616c-10.432,8.524-19.931,18.15-30.151,26.914c1.258-4.877,3.166-9.556,4.467-14.418
	c-8.34,10.277-18.475,21.614-32.823,21.91c12.966-28.52,47.913-65.045,85.111-81.619c-1.414,0.014-4.241,0.057-5.654,0.085
	c1.739-3.548,3.873-6.898,5.81-10.333c-12.538,1.965-24.78,5.414-36.753,9.57c3.59-4.481,7.718-8.51,11.323-12.991
	c-13.33,2.629-25.812,8.17-38.435,12.991c4.099-5.81,9.612-10.39,14.32-15.677c-15.719,4.948-30.222,12.948-44.428,21.119
	c3.675-6.234,9.273-10.969,13.598-16.694c-13.132,8.736-26.066,22.278-43.312,19.988c24.749-32.65,67.996-51.622,103.869-55.101
	c10.333-1.385,20.68-0.057,30.985,0.82c-7.464-3.619-16.129-4.976-22.9-9.796c4.043-1.23,8.142-2.346,12.072-3.972
	c-10.432-5.569-21.812-9.231-32.088-15.097c4.919-0.975,9.909-1.569,14.857-2.502c-11.987-6.517-25.105-10.715-37.205-17.033
	c5.725-0.481,11.478-0.848,17.231-1.357c-13.415-2.926-29.176-7.492-35.226-21.204c28.731-0.052,84.755,16.466,122.726,57.122
	c1.456,1.795,3.463,2.884,5.711,3.477c-3.802-10.955-10.418-20.596-16.836-30.137c4.184,0.438,8.397,0.947,12.623,1.371
	c-6.828-10.545-15.648-19.536-24.2-28.625c5.47,0.919,10.686,2.841,16.044,4.255c-7.704-10.955-18.645-18.998-27.791-28.625
	c6.997,1.145,13.57,3.93,20.313,6.092c-11.506-11.931-25.345-21.175-38.562-31c8.396,1.159,16.44,4,24.469,6.672
	c-11.446-6.744-36.409-14.582-41.149-32.046c38.078,8.462,69.734,33.064,90.059,61.292c27.01,37.706,20.025,65.974,18.532,76.036
	c40.17-36.4,87.875-44.463,117.849-41.248c-6.403,10.899-19.804,13.5-31.381,14.616c4.099,1.202,8.326,1.951,12.326,3.548
	c-10.517,3.831-21.43,6.502-32.145,9.697c3.308,2.643,7.76,2.827,11.676,4.198c-1.403,1.852-0.893,1.366-28.554,9.612
	c3.35,2.021,6.842,3.802,10.163,5.909c-9.513,2.474-19.041,4.82-28.596,7.124c2.05,2.233,3.732,5.824,7.252,5.739
	c50.648,1.932,105.689,48.373,119.687,91.514c-17.776-2.365-28.725-24.474-36.244-33.275c3.195,7.52,7.068,14.744,9.683,22.518
	c-11.111-12.496-22.957-24.624-36.824-34.053c2.813,6.304,6.573,12.185,8.891,18.716c-10.856-7.902-20.793-17.246-32.851-23.366
	c2.064,5.018,4.736,9.782,6.417,14.97c-10.375-6.7-20.285-14.348-31.833-18.97c0.919,3.944,2.092,7.831,3.025,11.789
	c-5.668-2.346-11.068-5.287-16.878-7.209c43.348,29.392,69.839,75.553,76.276,105.537c-14.701-3.393-22.561-17.684-28.045-30.448
	c0.622,5.428,1.583,10.814,1.625,16.298c-8.524-9.923-14.871-21.529-23.451-31.395c-0.198,4.792,0.127,9.598,0.113,14.404
	c-7.817-8.821-13.528-19.281-21.373-28.059c-1.286,6.163,3.435,11.082,5.358,16.567c10.206,24.426,17.175,50.903,15.973,77.563
	c-16.581-9.259-17.182-32.299-18.475-35.947c-1.145,4.905-1.569,9.951-2.757,14.842c-5.894-11.733-8.467-24.836-13.895-36.781
	c-1.654,4.552-2.516,9.33-3.661,14.037c-5.47-10.418-8.213-22.094-12.581-33.007c-2.05,3.887-3.647,7.987-5.414,12.001
	c-4.481-10.559-6.729-21.896-10.8-32.597c-2.516,2.559-4.905,5.216-7.351,7.831c-4.453-10.517-7.577-21.557-12.128-32.031
	c-17.204,9.439-53.955,71.7-77.082,170.929c4.636,0.862,8.962,2.884,13.104,5.103c-4.651-0.523-9.259-1.371-13.853-2.149
	c-4.029,16.313-6.517,32.95-10.22,49.319c35.961,6.816,205.051,41.171,219.259,54.578c-70.675-14.575-95.144-30.71-219.23-52.231
	c-0.226,1.272-0.693,3.788-0.933,5.061c13.946,3.195,134.327,27.489,153.98,34.562c11.318,3.648,13.464,12.028,30.759,11.266
	c10.738,5.418,41.889,8.484,59.455,14.107c-14.135-0.82-27.621-6.121-41.7-7.068c3.492,2.728,8.185,2.502,12.115,4.311
	c8.411,6.403,21.599,5.315,27.847,14.772c-15.776-0.071-30.858-5.781-46.563-6.545c-23.653-1.238-50.213-12.425-60.939-12.001
	c10.084,6.553,82.584,24.435,83.584,24.695c-45.327-6.51-101.076-21.769-109.679-25.317c-7.011-3.817-15.295-2.346-22.772-4.538
	c-12.355-3.209-24.441-7.563-37.163-9.146c-0.89,0.735-1.739,1.498-2.544,2.262c-13.895-11.832-33.318-11.916-50.549-13.443
	c-0.368,2.87-0.749,5.725-1.117,8.594c3.263,0.912,191.057,39.647,213.124,57.716c-16.867-0.437-48.871-8.846-84.065-13.5
	c17.125,7.327,54.683,10.845,82.425,21.359c6.828,2.615,14.023,4.015,21.119,5.711c-3.124,0.141-6.234,0.184-9.301,0.382
	c2.94,1.951,5.965,3.831,8.736,6.078c-14.102,7.267-46.719-6.76-72.474-12.595c-11.757-2.742-69.179-15.472-81.874-15.62
	c17.792,5.871,46.76,8.718,49.277,13.599c-1.202,0.212-3.576,0.636-4.778,0.834c33.476,10.221,16.315,3.157,95.882,29.346
	c-0.905,0.339-2.714,1.018-3.619,1.357c6.446,4.933,14.927,5.16,22.348,7.888c-4.905-0.141-9.74-1.103-14.63-0.99
	c7.068,4.693,16.27,4.396,23.211,9.33c-70.781,2.609-165.444-41.005-181.177-23.239c42.654,14.748,26.014,11.071,46.973,20.666
	c8.334,4.055,43.534,13.751,47.92,14.206c-3.096-3.774-8.976-2.403-12.157-6.121c34.506,3.819,100.443,31.741,119.531,30.66
	c-0.056,0.891-0.141,2.672-0.198,3.562c-3.421,0.509-6.898,0.537-10.206,1.442c-2.106,1.498-3.633,3.633-5.343,5.527
	c-7.864-4.618-5.471-7.463-27.155-4.792c59.085,21.266,75.308,10.513,86.949,23.041c-17.762,1.898-47.113-9.721-67.597-12.1
	c1.838,3.209,4.057,6.206,5.584,9.612c-3.675,0.014-7.308-0.198-10.941-0.014c11.46,12.305,38.83,6.826,40.725,6.771
	c-4.438,5.47-12.708,3.477-18.814,5.244c2.841,2.021,6.714,1.385,9.895,2.855c-31.358,7.555-172.373-19.164-182.944-17.33
	c3.013,3.219-2.94,0.64,84.871,20.101c20.553,4.128,40.16,13.245,61.462,13.104c-6.319-4.354-14.362-4.326-21.387-6.856
	c-2.516-0.382-1.696-3.124-1.753-4.834c20.638,0.466,41.036,4.778,61.349,8.213c-6.333,4.538-13.98,6.333-21.331,8.425
	c9.499,4.792,20.539,3.76,30.773,5.654c12.058,1.922,23.522,7.845,35.961,7.138c-5.146-4.891-12.948-4-19.112-6.813
	c14.758,0.622,29.219,4.198,43.905,5.697c3.506,0.778,8.397-0.042,10.347,3.774
	C2538.939,1024.812,2530.57,1021.363,2521.891,1020.854z M2367.388,950.769c5.517,2.758,29.448,6.053,36.3,5.781
	C2400.437,953.128,2372.137,950.673,2367.388,950.769z M2365.96,967.675c1.258,3.746,5.47,3.633,8.708,4.269
	c5.004,0.622,9.259,3.916,14.39,4.085c15.139,1.202,30.25,3.887,45.475,3.562C2412.771,971.758,2380.969,967.243,2365.96,967.675z
	 M2305.629,881.674c1.64,2.177,4.382,2.601,6.856,3.407C2310.251,883.794,2307.99,882.607,2305.629,881.674z M2285.175,879.341
	c1.442-2.445-2.799-4.212-4.198-2.233C2279.747,879.356,2283.818,881.377,2285.175,879.341z M2198.198,785.283
	c9.061,1.859,86.491,16.49,93.451,16.44c-15.088-5.696-26.969-8.442-93.041-20.709
	C2198.509,782.074,2198.297,784.222,2198.198,785.283z M879.762,676.932c-0.424-2.827-0.735-5.654-0.989-8.481
	c-11.097,0.961-22.221-0.028-33.304,0.622c0.905,1.103,1.823,2.205,2.756,3.322c-10.884,1.668-21.981,2.488-32.964,1.611
	c6.898-3.746,15.337-1.442,22.886-2.262c-0.057-0.721-0.155-2.191-0.198-2.926c-22.869,0.584-95.543,5.499-95.543,5.499
	c-14.517-2.884-29.812-1.823-44.004,2.106c6.931,2.475,39.741,2.121,62.183,1.866c6.541-0.352,8.797,0.452,12.637-3.124
	C785.975,682.822,841.989,673.411,879.762,676.932z M755.1,719.099c-0.834,2.318-0.085,3.067,2.233,2.262
	C758.111,719.057,757.376,718.308,755.1,719.099z M803.345,717.827c-8.185,0.424-17.458-2.53-24.54,2.983
	C787.046,720.273,795.542,721.403,803.345,717.827z M808.914,717.785c-3.944,1.71,1.852,4.241,3.407,1.88
	C813.664,717.629,810.144,717.05,808.914,717.785z M913.674,708.794c-3.053,1.329,0,4.778,2.276,3.096
	C918.819,710.618,915.837,706.9,913.674,708.794z M431.576,885.49c7.492,3.209,14.376-1.993,20.977-4.863
	C445.528,881.999,438.107,882.352,431.576,885.49z M452.709,918.342c-9.301,0.141-18.574,1.159-27.819,2.219
	c1.244,2.007,1.216,5.372,3.633,6.347C436.849,925.014,445.288,922.682,452.709,918.342z M499.074,944.069
	c-2.373,0.022-34.81-2.083-48.132,1.159c-4.947-0.58-9.909-1.145-14.913-0.99c0.368,1.173,1.088,3.534,1.442,4.707
	C458.067,948.536,478.705,947.32,499.074,944.069z M499.145,886.211c-15.77,0.457-60.856,3.535-89.366,2.615
	c1.244,3.265,2.785,6.418,4.495,9.471C448.183,891.504,461.091,894.369,499.145,886.211z M504.361,882.607
	c-0.82-1.569-1.611-3.166-2.332-4.764c-12.807,2.361-25.6,4.721-38.378,7.167C477.235,885.547,490.875,884.218,504.361,882.607z
	 M527.6,875.171c-8.368-0.283-16.723,1.187-24.879,2.898c6.234,6.135,15.436,4.905,23.211,3.209
	C527.487,879.624,527.218,877.221,527.6,875.171z M421.427,1185.323c-6.757,1.145-14.715,0.65-20.313,5.047
	C408.479,1192.122,415.009,1188.305,421.427,1185.323z M497.095,1179.131c-2.912,0.608-7.209-1.032-9.202,1.583
	c1.88,0.523,3.802,0.99,5.739,1.4c-4.495,0.763-8.99,1.626-13.556,1.88c1.937-1.032,4.057-1.767,5.923-2.827
	c-6.583-2.047-30.253,4.657-49.546,7.167c0.763,0.297,2.29,0.862,3.068,1.145c11.492-0.466,23.013-0.99,34.406-2.728
	c-0.933-1.258-1.838-2.516-2.742-3.746c7.478,3.873,16.086,5.089,24.229,2.502C497.236,1183.937,496.615,1181.209,497.095,1179.131z
	 M683.234,801.524c-3.407-0.311-6.799-0.057-10.149,0.424c2.332-1.244,4.552-2.728,6.559-4.467
	c-12.721-1.649-52.821,6.746-84.376,9.146c0.277,5.821,0.655,8.002,1.569,14.984c6.714-0.141,14.178,1.937,20.214-2.007
	c4.439-2.756,9.542-4,14.616-4.962c5.937-0.975,10.927-4.792,16.892-5.612c7.534-1.654,15.563,0.042,22.815-2.968
	C675.332,804.578,679.658,803.928,683.234,801.524z M766.21,802.076c4.048-0.908,30.5-5.289,36.781-2.884
	c2.728,0.622,5.4,2.248,8.298,1.527c26.024-5.111,9.163,0.786,76.601-4.82c24.444-0.94,62.217,2.517,90.511-4.297
	c7.633-1.739,15.464-0.551,23.182-1.258c6.912-0.622,13.853-1.145,20.765-1.894c-8.821-4-18.489-1.23-27.72-2.417
	c3.534-2.403,8.015-2.092,11.902-3.675c-8.787-1.107-61.654,3.897-83.683,3.548c-7.312,2.035-167.398,10.48-168.398,10.234
	c-0.099,0.891-0.269,2.7-0.353,3.605c-4.891-0.551-9.697-1.908-14.645-1.739c-5.909-0.028-11.818,1.456-17.712,0.523
	c-8.642-1.409-21.218,2.49-27.451,0.452c2.559-1.682,5.979-1.244,8.877-2.036c-3.645-2.253-14.575-1.701-18.037,1.244
	c2.417,0.466,5.16,0,7.421,1.117c-0.24,0.777-0.721,2.318-0.961,3.096c7.265,0.023,13.826,0.26,40.895-2.559
	c5.287-1.018,10.135,2.29,15.436,1.64C754.025,800.888,760.118,802.161,766.21,802.076z M672.307,982.461
	c23.211-0.368,46.506,1.216,69.689-0.721c-0.792-1.258-1.569-2.516-2.332-3.746c3.576,1.145,6.898,3.802,10.856,3.265
	c11.026-0.848,21.811-4.142,32.964-3.492c-6.46,1.739-13.316,1.414-19.663,3.647c17.045,1.648,77.698-5.498,107.078-8.92
	c-18.235-0.269-36.428,1.258-54.649,0.466c0.099,1.357,0.212,2.742,0.325,4.128c-10.786,0.679-21.656,2.375-32.441,0.933
	c7.958-3.124,16.694-1.23,24.949-2.615c-3.308-4.396-9.584-1.753-14.221-2.106c-24.002,1.583-48.047,2.474-71.965,5.117
	c-8.284,1.173-16.581-1.513-24.836,0.099C689.524,980.143,680.562,979.549,672.307,982.461z M526.95,1126.659
	c-0.141-2.248-3.59-1.838-4.622-0.481C520.603,1129.077,526.384,1128.737,526.95,1126.659z M533.777,1004.909
	c-1.074-2.643-5.258-0.834-7.478-0.693l-0.509,0.424C528.222,1005.7,531.318,1006.153,533.777,1004.909z M606.774,1117.655
	c-3.551-0.145-39.057,2.403-75.414,8.92c5.259,1.301,11.21,2.855,16.157-0.24C564.19,1123.507,549.511,1131.586,606.774,1117.655z
	 M742.42,985.585c-12.821-1.753-25.727,0.99-38.562-0.325c-45.027-4.69-85.32,2.998-211.343,16.737
	c-1.866,0.933-3.308,2.488-4.891,3.831c-9.895-3.35-19.889,0.834-29.883,0.466c2.361-1.527,4.933-2.657,7.492-3.788
	c-8.001-0.466-15.931,0.834-23.691,2.658c-6.46-0.58-13.174-0.961-19.225,1.937c3.732,1.626,7.775,0.891,11.634,0.212
	c-2.134,1.3-4.255,2.601-6.305,4.029c14.532,0,28.936-2.587,43.255-4.764c3.788-0.438,7.351,1.569,11.153,1.244
	c6.517-0.579,13.047-0.127,19.564-0.41c6.697-1.53,30.289-7.013,39.269-4.099c4.552,1.569,9.075-0.905,13.542-1.64
	c9.669-2.389,19.846-0.509,29.473-3.11c10.178-2.87,20.907-1.329,31.268-2.997c11.33-1.899,41.463-2.412,63.611-6.587
	C693.036,990.161,735.58,987.381,742.42,985.585z M869.952,1262.447c-7.874-0.834-15.705,1.23-23.578,0.367
	c5.046-1.527,10.404-1.739,15.394-3.52c-13.39-1.784-95.826,9.343-108.506,11.379c4.834,0.65,9.697,1.145,14.574,1.583
	c-17.811,2.559-35.707,5.244-53.687,5.725l-0.41-0.905c1.838-3.209,6.757-0.961,9.909-1.795c-0.028-0.608-0.099-1.824-0.127-2.431
	c-5.485,0.608-10.913,1.626-16.411,2.177c1.442,0.777,4.128,0.707,3.817,2.983c0,0-156.344,17.424-240.194,28.3
	c-3.901,0.311-10.503-2.219-11.28,3.52c-5.117-0.382-10.22-1.611-15.366-0.99c-5.838,0.664-11.591,2.149-17.5,1.979
	c2.431-1.583,5.018-2.898,7.605-4.184c-7.888,0-15.79,0.721-23.352,2.983c-5.993-0.24-13.952-2.516-18.419,2.728
	c3.958,0.127,7.93-0.24,11.832-0.99c-2.276,1.286-4.523,2.601-6.672,4.114c12.899,0.739,36.126-4.167,44.796-4.637
	c7.944,2.036,16.101,0.551,24.172,0.891c5.993,0.396,11.634-2.021,17.429-3.138c0.594,0.834,1.781,2.488,2.389,3.308
	c0.269-1.216,0.452-2.46,0.707-3.647c7.973-0.594,16.086-2.969,24.002-0.693c4.509,1.23,8.934-0.947,13.316-1.739
	c7.973-1.739,16.171-1.3,24.257-1.937c13.443-0.905,26.801-2.728,40.131-4.679c13.938-1.654,28.017-1.512,42.011-2.346
	c54.691-2.417,108.93-10.065,163.394-15.097c50.662-5.578,58.083-4.617,66.169-10.178c-9.103-2.983-19.38,0.071-27.847-5.103
	C870.648,1265.731,864.305,1268.493,869.952,1262.447z M991.321,1092.635c-8.736-4.283-18.433-0.749-27.593-2.53
	c4.142-1.428,8.481-2.149,12.581-3.69c-9.848-0.817-247.535,14.408-265.638,19.013c27.659,2.101,16.138-0.108,64.713-2.502
	c37.011-4.666,12.555,1.332,60.048-1.018c61.115-4.112,64.21,0.367,91.684-3.195C945.561,1089.491,938.931,1098.5,991.321,1092.635z
	 M1037.7,1095.349c-29.517-1.044-57.328,2.484-59.031,2.884C998.347,1097.37,1018.009,1095.943,1037.7,1095.349z M1063.441,791.771
	c-17.601-1.89-29.007-0.132-47.001,1.258C1032.131,793.495,1047.751,791.375,1063.441,791.771z M1353.251,766.171
	c-19.338,0.297-38.675-1.187-57.999-0.396c-21.147,0.339-42.28,1.371-63.413,1.541c56.111,6.235,72.933,0.836,121.397,0.071
	C1353.237,767.076,1353.251,766.468,1353.251,766.171z M2407.166,1341.225c2.827,2.157,21.109,5.911,28.907,4.976
	C2426.998,1342.526,2416.891,1341.55,2407.166,1341.225z M2426.659,1308.006c-5.393-4.248-29.397-7.756-36.315-7.958
	C2392.36,1300.88,2418.045,1309.204,2426.659,1308.006z M2360.165,1319.626c4.237,4.874,12.77,3.558,40.301,8.736
	C2393.287,1323.869,2368.419,1319.337,2360.165,1319.626z M2354.539,1319.188c1.499-2.021-1.795-4.636-3.251-2.488
	C2349.803,1318.636,2353.069,1321.393,2354.539,1319.188z M2305.488,1312.176c-0.467-1.965-3.477-2.643-4.721-1.145
	C2299.749,1313.477,2305.106,1314.608,2305.488,1312.176z M2310.534,1312.318c-1.428,1.88,1.795,3.788,3.18,2.234
	C2315.128,1312.671,2311.849,1310.522,2310.534,1312.318z M2338.777,1315.809c2.149,0.085,4.297,0.17,6.517,0.226
	c-2.135-0.678-4.269-1.23-6.389-1.781C2338.876,1314.65,2338.805,1315.427,2338.777,1315.809z M2297.162,1304.684
	c2.191,1.084,11.936,8.977,31.325,7.393C2318.521,1307.921,2307.566,1307.243,2297.162,1304.684z M2267.364,1302.861
	c3.011,1.866,6.375,3.11,9.923,3.59C2276.241,1302.14,2270.629,1303.44,2267.364,1302.861z M2335.71,1272.102
	c1.47,3.802,5.88,3.449,9.216,4.17c4.552,0.608,8.354,3.788,13.076,3.901c15.167,1.258,30.307,3.845,45.559,3.633
	C2383.217,1276.038,2349.096,1271.199,2335.71,1272.102z M2335.229,1255.054c12.524,3.308,25.501,5.287,38.449,5.951
	C2371.395,1257.536,2341.741,1254.642,2335.229,1255.054z M2279.916,1187.952c-0.169-2.163-3.378-2.785-4.622-1.258
	C2273.923,1189.38,2279.69,1191.161,2279.916,1187.952z M2239.969,1180.912c1.357-1.908-1.88-3.788-3.195-2.191
	C2235.276,1180.587,2238.598,1182.693,2239.969,1180.912z M2284.369,928.18c5.779,2.057,42.257,10.739,55.624,10.658
	C2335.381,936.49,2290.847,928.906,2284.369,928.18z M2274.983,897.774c-1.074,0.65-2.106,1.315-3.11,1.993
	c6.375,0.65,12.708,1.908,19.14,2.149C2286.39,898.41,2280.524,898.071,2274.983,897.774z M2246.302,876.133
	c4.467,1.979,9.16,3.378,13.895,4.594c-0.212-0.608-0.664-1.824-0.876-2.431C2255.052,877.15,2250.698,876.359,2246.302,876.133z
	 M2231.742,841.656c-0.155-2.134-3.308-2.813-4.58-1.329C2225.734,843.013,2231.516,844.907,2231.742,841.656z M2198.99,872.019
	c-0.057,0.254-0.156,0.763-0.198,1.018c8.99,2.205,18.277,3.562,27.565,3.237c0.622-0.368,1.852-1.103,2.474-1.484
	C2218.878,873.843,2208.899,873.291,2198.99,872.019z M2192.515,828.057c1.838,2.898,5.682,3.661,8.835,2.615
	C2198.565,829.273,2195.569,828.411,2192.515,828.057z M2124.07,869.8c7.351,3.976,12.432,2.431,34.859,5.923
	c-0.777,1.145-1.484,2.318-2.219,3.492c1.187,0.113,2.389,0.24,3.633,0.382c-0.297-0.905-0.876-2.728-1.159-3.647
	c25.996,3.831,51.03,12.171,76.743,17.316c6.799,1.767,13.726-1.385,20.511,0.466c5.909,1.244,11.902,1.993,17.882,2.997
	c-0.297-0.466-0.862-1.399-1.159-1.852c-26.674-12.029-56.472-12.256-84.941-16.581
	C2163.682,875.571,2137.509,868.245,2124.07,869.8z M2246.952,921.254c-1.399,2.431,2.771,4.113,4.269,2.262
	C2252.408,921.225,2248.267,919.232,2246.952,921.254z M2216.108,916.306c1.003-0.155,2.982-0.481,3.972-0.636
	c-23.083-4.891-46.365-12.92-70.254-9.966C2158.06,908.738,2207.339,915.318,2216.108,916.306z M2165.657,969.4
	c2.05,0.594,4.142,1.103,6.248,1.626c0.071-0.353,0.184-1.046,0.24-1.4C2169.969,969.513,2167.792,969.414,2165.657,969.4z
	 M2123.434,1130.844c-62.698-9.302-61.089-17.343-71.371-8.199C2053.065,1122.802,2114.625,1131.729,2123.434,1130.844z
	 M2060.361,1168.049c5.004,4.962,12.722,2.969,19.069,3.562C2073.224,1169.802,2066.906,1167.455,2060.361,1168.049z
	 M2049.363,1121.797c-0.636-0.41-1.908-1.23-2.544-1.64c-11.577-2.545-23.494-3.633-35.339-3.788
	C2023.863,1119.408,2036.599,1121.712,2049.363,1121.797z M2007.211,1163.511c4.905,2.841,10.715,4.014,16.355,3.392
	C2018.971,1163.384,2012.653,1164.204,2007.211,1163.511z M2052.063,1087.73c-6.842-3.93-15.154-3.435-22.674-5.103
	c1.456,1.64,2.516,4.326,5.16,4.128C2040.359,1087.292,2046.197,1088.125,2052.063,1087.73z M2127.618,1097.893
	c-4.764-1.371-9.867-1.117-14.475-3.011c-14.313-6.067-48.909-8.035-52.047-8.425c8.566,4.283,18.32,4.424,27.169,7.803
	c4.099,0.014,8.227-0.566,12.34,0.071C2106.536,1095.539,2112.724,1099.155,2127.618,1097.893z M2072.433,1082.994
	c-15.708-4.498-39.182-6.991-46.987-6.333C2027.596,1077.492,2057.504,1082.871,2072.433,1082.994z M2076.546,898.368
	c2.488,1.823,4.608-1.866,7.252-1.343c5.895,0.269,12.256,0.693,16.977,4.707c12.33-3.326,26.01,3.718,45.277,2.714
	c-3.756-3.309-96.868-15.455-113.241-14.376c9.16,3.011,18.588,5.145,28.229,5.866
	C2066.213,896.658,2071.796,895.64,2076.546,898.368z M2038.394,859.368c4.439,3.421,10.616,3.619,16.016,3.322
	C2049.702,859.537,2043.78,859.848,2038.394,859.368z M2079.797,817.611c-8.115-4.534-27.471-5.476-37.332-5.23
	C2054.707,815.208,2067.188,817.427,2079.797,817.611z M2089.438,814.317c-2.629,0.905-4.962,2.417-7.28,3.887
	c1.764,0.31,56.365,8.492,63.483,8.029c-9.245-3.562-19.338-3.859-28.865-6.361C2107.659,818.021,2098.739,814.939,2089.438,814.317
	z M2118.854,790.004c13.944-2.756,26.351,6.517,37.064,3.477c-18.115-2.139-17.142-9.84-63.837-10.955
	C2100.577,786.512,2110.118,786.823,2118.854,790.004z M2090.852,863.283c0.951,4.44,12.852,4.113,18.221,4.142
	C2103.291,864.994,2097.071,863.764,2090.852,863.283z M2080.532,763.867c4.685,2.722,77.223,14.267,79.414,14.602
	c0.382-1.47,0.806-2.94,1.258-4.396C2151.554,772.515,2088.02,763.622,2080.532,763.867z M2056.276,772.292
	c10.913,3.498,35.791,6.065,47.241,6.856C2088.285,774.425,2063.781,771.866,2056.276,772.292z M1987.096,771.472
	c5.831,2.52,30.037,3.51,37.474,3.181C2021.813,770.872,1990.532,771.041,1987.096,771.472z M1974.826,801.298
	c-51.944-2.677-64.673-7.067-72.53-3.068c51.34,9.306,85.528,10.445,119.277,13.796c4.99,0.848,8.948-3.689,13.938-3.138
	c26.698,1.187,18.434,2.259,27.254,0.495c-6.22,0.212-12.355-1.117-18.193-3.152c-4.495-1.937-8.623,2.233-13.118,1.908
	c-5.245-0.297-10.305-1.908-15.535-2.177c-3.76,0.325-7.181,3.59-11.012,1.696C1995.266,804.027,1985.131,801.765,1974.826,801.298z
	 M1954.965,1075.87c9.409,2.024,29.889,3.577,39.085,2.728C1987.639,1075.326,1961.192,1074.873,1954.965,1075.87z M1809.127,754.34
	c67.467,17.291,77.447,12.95,129.115,15.592C1926.793,764.693,1820.957,753.861,1809.127,754.34z M1889.814,726.266
	c0.297,0.339,0.891,1.018,1.188,1.357c5.583,0.862,11.308,1.046,16.977,0.876C1902.776,724.513,1895.835,725.39,1889.814,726.266z
	 M1835.646,714.109c-67.406-1.549-78.87-7.601-97.48-4.891c4.142,1.937,8.75,2.219,13.273,2.346
	c53.196,0.249,95.55,16.752,114.824,11.436c8.566-0.636,17.09,1.922,25.713,0.947
	C1874.307,716.216,1854.616,715.438,1835.646,714.109z M1775.187,665.313c7.839,3.944,27.861,3.843,34.463,3.378
	C1798.229,667.023,1786.708,665.681,1775.187,665.313z M1813.99,664.931c-2.686-2.954-6.884-2.276-10.446-2.346
	C1806.781,664.21,1810.357,664.96,1813.99,664.931z M1845.597,706.83c-6.828-1.201-18.372-0.968-24.172-0.297
	C1825.775,709.76,1839.581,708.565,1845.597,706.83z M1876.229,709.586c-2.728-4.396-8.863-2.827-13.203-3.237
	C1867.267,707.96,1871.706,709.035,1876.229,709.586z M1889.248,635.953c-24.084-5.211-25.27-3.868-28.95-1.979
	c-16.27-10.715-36.597-8.75-55.129-9.344c-10.234,0.226-20.412-2.12-30.604-0.891c36.241,16.218,72.394,11.389,112.916,21.274
	C1888.132,642.003,1888.754,638.978,1889.248,635.953z M1674.188,605.915l0.014,0.481c10.56,0.956,200.667,18.902,214.495,21.515
	c0.876-0.339,2.643-1.018,3.534-1.343c-1.272-0.792-2.53-1.527-3.788-2.233C1834.469,615.819,1733.465,606.422,1674.188,605.915z
	 M1665.918,617.025c9.009,5.095,27.592,4.489,43.566,9.527c5.499,1.824,11.506,0.919,17.005,2.841
	c4.439,1.965,9.16-1.06,13.782-0.028c8.807,1.979,18.094,3.11,26.999,0.961c-4.863-0.24-9.782-0.424-14.418-2.007
	c-10.687-3.463-22.094-3.562-32.88-6.559c1.527-0.622,3.067-1.23,4.622-1.838c-4.693,0.891-9.485,1.244-14.136-0.057
	C1700.236,617,1672.304,616.277,1665.918,617.025z M1704.283,705.84c3.382,3.441,27.892,5.066,28.893,5.117
	C1728.464,708.191,1710.709,704.682,1704.283,705.84z M1716.326,658.372c-4.566-1.074-9.217-1.71-13.839-2.304
	c-0.509,0.679-1.513,2.007-2.021,2.672C1705.739,658.514,1711.026,658.542,1716.326,658.372z M1644.404,603.724
	c-4.534-3.455-28.681-4.644-34.406-4.453C1615.29,601.638,1640.118,603.676,1644.404,603.724z M895.199,640.335
	c6.206-0.325,12.439-0.749,18.645,0.014c7.096,0.834,14.489-3.873,21.232-0.184c47.139,23.645,130.841,3.202,213.633-7.209
	c79.467-10.365,257.585-3.059,303.239-11.323c4.75,0.297,9.075,3.195,13.966,2.912c39.07-0.468,213.245,3.267,227.09,1.809
	c-6.849-3.095-9.334-1.564-36.88-5.131c0.664-0.933,1.357-1.852,2.064-2.756c-37.548-11.523-563.134-1.28-570.983,9.457
	c-1.654-1.428-3.251-3.35-5.682-2.728c-1.001,0.057-175.417,8.031-186.817,8.227C894.658,639.156,894.811,638.88,895.199,640.335z
	 M1159.663,655.771c-38.343-1.656-244.398,12.101-260.408,12.496c1.036,4.265,0.949,3.808,1.597,6.517
	C1080.203,659.558,1147.851,660.838,1159.663,655.771z M1178.944,657.779c-2.728-6.389-10.616-3.52-15.832-2.573
	c0.608,4.156,4.481,2.94,6.206,0.254C1172.315,656.973,1175.552,657.878,1178.944,657.779z M1296.595,652.817
	c-17.062-0.537-34.166,1.315-51.157-0.594c-2.912-0.24-5.682,0.777-8.524,1.088c-16.949-2.94-34.067,2.714-51.044-0.438
	c-0.311,1.046-0.947,3.167-1.258,4.213c10.828-0.254,21.712,0.41,32.441-1.428c14.355,4.402,21.444,0.474,77.718-1.498
	C1295.224,653.821,1296.143,653.156,1296.595,652.817z M1414.233,687.916c-6.177-0.82-12.411-0.438-18.574,0.141
	c0.014,0.438,0.057,1.315,0.071,1.753C1410.702,689.051,1412.103,690.373,1414.233,687.916z M1412.748,682.417
	c-1.145,1.922,2.134,3.76,3.52,2.248C1417.498,682.686,1414.063,680.933,1412.748,682.417z M1442.405,680.396
	c-29.515-14.473-86.41-9.667-103.304,0.028c11.747,1.654,23.833-0.523,35.452,2.29c-6.615,0.693-13.302,0.269-19.889,1.23
	c2.827,3.039,7.223,2.177,10.955,2.417c30.406-0.434,30.344,0.807,34.972-2.559c-6.516-0.947-13.118-0.509-19.634-1.23
	c6.565-0.931,45.363-3.267,51.228-0.24C1435.62,681.908,1439.154,681.696,1442.405,680.396z M1562.219,705.402
	c-15.436-2.657-31.268-1.852-46.86-1.767C1530.852,705.868,1546.599,705.628,1562.219,705.402z M1580.044,696.85
	c-0.028-0.382-0.071-1.117-0.085-1.484c-7.478,0-14.955-0.58-22.391,0.014C1564.594,698.461,1572.595,697.26,1580.044,696.85z
	 M1688.154,659.32c-2.248-0.65-4.41-1.456-6.545-2.318c5.032-0.749,10.107-1.117,15.196-1.484
	c-12.143-0.778-24.356-0.495-36.428-2.163c-2.629-0.58-5.16-1.541-7.817-1.809c-3.802,0.947-7.195,3.633-11.266,3.322
	c-7.266,0.156-15.153-3.053-21.642,1.64c0,0-60.678-15.245-305.006-3.562c30.307,0.905,60.642-0.071,90.963,0.509
	C1503.718,651.547,1562.689,662.237,1688.154,659.32z M1659.105,705.345c3.605-2.445,8.199-1.187,12.298-1.753
	c-8.44-2.945-34.114-3.448-43.057-2.799c9.174,1.541,18.518,1.498,27.762,2.403c0.198,0.339,0.594,1.004,0.778,1.343
	c-2.29,1.159-4.863,0.961-7.308,1.103c5.995,1.528,3.866,1.768,17.387,2.643c-0.269-0.452-0.82-1.371-1.103-1.838
	C1663.629,705.911,1661.339,705.543,1659.105,705.345z M1730.844,1046.03c-5.214-1.462-24.694-3.73-32.512-2.036
	C1708.99,1046.128,1720.002,1046.185,1730.844,1046.03z M1761.843,741.858c-11.812-3.733-160.084-10.545-177.827-8.411
	c2.573,1.032,5.244,1.838,8.001,2.346C1641.624,735.899,1761.843,741.858,1761.843,741.858z M1908.657,1074.103
	c-12.091-3.866-96.112-15.622-108.421-11.379C1828.85,1072.958,1861.922,1072.513,1908.657,1074.103z M1850.615,1224.153
	c-3.265-2.799-7.647-1.88-11.563-1.838C1842.841,1223.206,1846.7,1223.913,1850.615,1224.153z M1996.906,1115.308
	c7.956-3.566,14.447-1.364,40.174-0.042c-7.732-1.343-15.62-2.064-23.055-4.75c-4.198-1.753-8.114,1.951-12.312,1.823
	c-6.502-0.311-12.849-2.417-19.394-1.951c-3.704,5.216-10.277,0.014-14.984-0.919c-6.856-2.278-87.245-11.1-94.935-7.11
	C1903.518,1108.57,1990.554,1118.175,1996.906,1115.308z M2116.282,1208.194c-5.218-1.894-91.951-14.942-113.284-14.192
	c18.817,8.407,36.553,4.146,46.139,9.754c0.028-0.707,0.113-2.149,0.141-2.855c6.375,0.947,13.641-0.17,19.154,3.845
	c2.799,2.431,6.404-0.255,9.626,0.071C2090.781,1205.777,2103.46,1209.989,2116.282,1208.194z M2141.683,1273.699
	c-1.937-0.17-3.845-0.24-5.739-0.198C2137.527,1275.028,2139.973,1275.141,2141.683,1273.699z M2194.056,1221.397
	c-21.982-6.468-54.13-14.365-76.545-11.379C2134.831,1213.875,2185.615,1220.988,2194.056,1221.397z M2288.85,1249.626
	c-19.004-7.822-112.651-23.444-131.717-26.73C2216.683,1244.89,2243.902,1244.464,2288.85,1249.626z M2221.974,1228.366
	c-1.569-1.654-3.788-2.276-5.88-2.799C2217.818,1226.896,2219.825,1227.8,2221.974,1228.366z M2251.376,1231.518
	c6.825,2.734,46.346,12.142,58.776,11.28C2306.023,1241.335,2252.378,1231.699,2251.376,1231.518z M2240.605,1202.964
	c6.502,2.106,13.386,2.926,20.228,3.237C2255.235,1201.522,2247.362,1202.003,2240.605,1202.964z M2156.893,1182.411
	c-35.638-4.76-49.381-9.836-63.752-8.467c9.442,4.75,20.384,2.898,30.406,5.357c2.785,0.382,4.198,3.11,6.05,4.947
	c-0.382-1.046-1.131-3.124-1.512-4.17c35.094,5.58,60.895,15.014,80.22,17.825c4.834,0.862,9.626-1.329,14.475-0.481
	c7.125,1.088,14.178,2.997,21.458,2.87C2225.066,1188.327,2183.561,1186.345,2156.893,1182.411z M2215.33,1180.092
	c4.933,2.106,10.022,4.17,15.479,4.439C2226.639,1180.658,2220.561,1180.997,2215.33,1180.092z M2200.771,1145.587
	c-0.198-2.12-3.336-2.813-4.58-1.286C2194.735,1147.001,2200.559,1148.81,2200.771,1145.587z M2168.499,1176.205
	c5.081,4.121,24.651,4.954,31.183,3.831C2197.22,1178.011,2198.372,1179.176,2168.499,1176.205z M2158.675,1132.003
	c3.619,1.71,7.435,2.997,11.238,4.326c-0.17-0.664-0.523-1.993-0.707-2.657C2165.728,1132.879,2162.194,1132.328,2158.675,1132.003z
	 M2137.4,1135.339c9.627,2.629,19.833,3.887,29.841,3.845C2165.785,1138.776,2143.915,1133.477,2137.4,1135.339z M2261.936,1106.573
	c-20.215-9.464-58.643-13.309-91.613-21.076c-11.55-2.895-13.868-2.458-94.412-12.114
	C2076.325,1073.469,2249.254,1104.483,2261.936,1106.573z M2272.537,968.523c-3.11-0.509-6.191-1.06-9.273-1.484
	c2.827,1.456,5.979,2.021,9.103,2.629C2272.41,969.386,2272.495,968.806,2272.537,968.523z M2318.408,945.638
	c-5.286-6.014-123.19-25.603-130.02-26.773C2242.335,940.331,2280.488,940.511,2318.408,945.638z M2307.665,1001.728
	c-2.389-3.378-6.927-2.87-10.517-3.689C2300.229,1000.23,2303.721,1002.025,2307.665,1001.728z M2350.171,1011.256
	c-1.414,1.922,1.838,3.647,3.209,2.149C2354.906,1011.496,2351.429,1009.446,2350.171,1011.256z M2358.468,1007.976
	c-8.453-4.142-18.051-4.552-27.056-6.714c1.187,1.739,2.375,3.463,3.576,5.273c-1.004,0.042-3.039,0.127-4.043,0.17
	c1.004,0.608,2.05,1.23,3.124,1.866c0.636-1.018,1.216-2.078,1.88-3.11C2343.371,1006.817,2350.863,1008.358,2358.468,1007.976z
	 M2438.024,1037.082c8.708,3.76,18.532,5.032,27.974,5.032c-4.863-3.039-10.87-3.308-16.411-3.831
	c-1.47,0.254-2.799-0.028-3.972-0.862C2443.084,1036.898,2440.512,1036.997,2438.024,1037.082z M2418.163,1039.796
	c-0.382,1.993,3.039,2.205,3.93,0.834C2422.418,1038.622,2418.955,1038.354,2418.163,1039.796z M2430.122,1023.511
	c-7.219-3.668-31.499-8.654-40.061-7.972c5.16,3.774,11.789,4.014,17.91,4.976
	C2415.379,1021.221,2422.658,1023.087,2430.122,1023.511z M2457.305,1003.948c-4.832-4.293-29.352-7.829-35.905-7.93
	C2424.006,997.087,2448.479,1004.842,2457.305,1003.948z M445.952,1005.87c0.254,1.908,1.244,2.219,2.954,0.947
	C448.638,1004.895,447.649,1004.57,445.952,1005.87z M400.987,1013.447c0.721-1.979,0.071-2.629-1.965-1.965
	C398.301,1013.433,398.965,1014.083,400.987,1013.447z M403.842,1015.878c-1.654-1.145-4.198-0.933-5.781,0.17
	C398.301,1018.112,403.588,1017.928,403.842,1015.878z M327.071,1024.246c-1.88,0.947-1.88,1.88,0,2.799
	C328.979,1026.042,328.979,1025.109,327.071,1024.246z M263.828,1028.968c0.749-1.965,0.085-2.629-1.965-1.979
	C261.142,1028.925,261.792,1029.576,263.828,1028.968z M2525.128,1031.159c-0.82-4.085-5.768-3.322-8.849-3.916
	C2517.537,1030.904,2521.976,1030.565,2525.128,1031.159z M2551.265,1030.834c0.678-2.29-0.113-3.082-2.389-2.389
	C2548.127,1030.735,2548.918,1031.526,2551.265,1030.834z M2549.512,1039.697c-1.414,1.88,1.922,3.817,3.279,2.163
	C2554.191,1039.923,2550.799,1037.986,2549.512,1039.697z M166.617,1045.238c-0.042-1.074-0.113-3.223-0.141-4.297
	c-1.399,0.424-2.785,0.919-4.142,1.498C161.288,1045.945,164.115,1045.563,166.617,1045.238z M2557.909,1041.365
	c-1.371,2.417,2.742,4.142,4.255,2.29C2563.351,1041.379,2559.238,1039.329,2557.909,1041.365z M2577.063,1041.351
	c1.654,2.573,4.693,3.336,7.52,4.029C2583.763,1041.874,2579.847,1041.944,2577.063,1041.351z M2438.745,1050.708
	c-5.866-2.926-12.552-3.647-18.999-3.901C2425.33,1050.369,2432.299,1050.624,2438.745,1050.708z M143.632,1066.003
	c0.763-2.276-0.014-3.025-2.347-2.248C140.522,1066.031,141.3,1066.781,143.632,1066.003z M62.225,1069.127
	c2.742-0.028,5.456-0.481,8.086-1.258C69.335,1063.275,62.522,1065,62.225,1069.127z M191.637,1075.488
	c1.725-2.036-1.922-2.785-3.11-1.668C184.612,1075.785,190.139,1078.174,191.637,1075.488z M2590.237,1073.665
	c-1.428-0.099-4.156,2.149-1.88,3.067C2590.491,1077.623,2594.138,1073.085,2590.237,1073.665z M2466.691,1078.075
	c-3.096,0.495-6.22,1.216-8.425,3.562C2461.051,1080.789,2465.956,1081.779,2466.691,1078.075z M890.93,1091.999
	C891.113,1096.678,895.17,1089.822,890.93,1091.999L890.93,1091.999z M926.679,1092.168c0.226,1.979,1.173,2.304,2.841,1.004
	C929.28,1091.193,928.333,1090.854,926.679,1092.168z M913.942,1096.225c0.255,1.908,1.23,2.234,2.94,0.975
	C916.6,1095.25,915.625,1094.925,913.942,1096.225z M819.742,1099.759c4.198-0.269,8.764-0.014,12.411-2.46
	C827.913,1097.187,823.092,1096.579,819.742,1099.759z M2428.751,1105.64c-2.276-2.587-5.81-2.516-8.92-2.318
	C2422.432,1105.159,2425.584,1105.682,2428.751,1105.64z M199.468,1115.125c3.675-0.268,7.336-0.636,11.012-0.975
	c-0.085-0.551-0.24-1.654-0.325-2.205C206.48,1112.594,202.833,1113.485,199.468,1115.125z M416.72,1146.464
	c-0.042-0.424-0.127-1.258-0.184-1.682c-3.237,0.24-6.63,0.071-9.612,1.569C410.175,1146.718,413.454,1146.647,416.72,1146.464z
	 M402.457,1146.534c-2.756,0.156-5.499,0.184-8.241,0.283c2.347,1.739,5.244,2.191,8.086,2.573
	C402.344,1148.669,402.414,1147.241,402.457,1146.534z M2356.291,1146.944c1.484,3.053,4.736,2.983,7.732,2.87
	C2362.271,1147.086,2359.189,1146.888,2356.291,1146.944z M2369.862,1148.584c0.212,1.951,1.173,2.29,2.884,1.018
	C2372.463,1147.623,2371.501,1147.283,2369.862,1148.584z M404.888,1158.578c-2.12,0.042-2.643,3.831-0.24,3.845
	C406.825,1162.437,407.348,1158.479,404.888,1158.578z M2298.985,1167.271c-1.484,1.922,1.937,3.76,3.294,2.12
	C2303.692,1167.455,2300.243,1165.575,2298.985,1167.271z M2311.722,1171.173
	C2311.962,1175.852,2315.934,1168.982,2311.722,1171.173L2311.722,1171.173z M2434.759,1185.323
	c-2.601-3.887-7.845-3.492-11.916-4.156C2426.489,1183.315,2430.532,1184.785,2434.759,1185.323z M2474.522,1186.764
	c-1.47,2.742,4.481,4.212,4.877,1.272C2479.003,1185.93,2475.879,1185.379,2474.522,1186.764z M2025.036,1196.645
	c0.226,1.951,1.187,2.276,2.898,1.018C2027.651,1195.684,2026.69,1195.345,2025.036,1196.645z M2465.391,1206.682
	c-7.902-1.88-16.072-2.361-24.158-2.304C2443.449,1208.7,2460.558,1207.123,2465.391,1206.682z M2333.406,1213.099
	c0.071-0.933,0.212-2.799,0.283-3.732c-1.696-0.028-3.378-0.014-5.018,0.028c0.198,0.735,0.594,2.205,0.792,2.954
	C2330.748,1212.576,2332.063,1212.831,2333.406,1213.099z M2413.781,1210.272c-0.283-1.993-1.244-2.347-2.87-1.06
	C2411.124,1211.162,2412.085,1211.516,2413.781,1210.272z M2413.965,1221.722c-0.297-1.979-1.272-2.318-2.912-1.032
	C2411.293,1222.627,2412.255,1222.966,2413.965,1221.722z M2435.098,1222.132c0.269,1.894,1.272,2.234,2.997,0.99
	C2437.784,1221.185,2436.78,1220.86,2435.098,1222.132z M365.619,1235.448c1.626-2.021-1.993-3.718-3.152-1.824
	C360.841,1235.617,364.446,1237.314,365.619,1235.448z M369.054,1249.484c2.559-0.495,5.117-1.894,7.789-1.258
	c6.022,1.484,12.072-0.919,18.136-0.961c0.198-0.311,0.58-0.919,0.777-1.216c-4.849-2.106-10.291,1.004-15.422-0.156
	c-4.637-0.961-9.386,0.848-13.966-0.198c1.597-2.714,6.092-1.809,8.594-3.76c-4.439-0.226-8.75,0.975-12.92,2.403
	C364.446,1245.951,366.736,1247.718,369.054,1249.484z M352.869,1245.357c1.626-2.064-2.078-3.605-3.209-1.739
	C348.006,1245.654,351.738,1247.18,352.869,1245.357z M336.895,1244.721c-0.353,0.41-1.074,1.23-1.428,1.654
	C336.669,1251.28,342.295,1243.774,336.895,1244.721z M707.703,1245.512c0.028-1.951-3.421-2.149-4.481-0.947
	C703.109,1246.573,706.572,1246.544,707.703,1245.512z M303.634,1254.078c-12.482,7.407-27.777,8.651-39.905,16.525
	c21.712-3.845,42.379-11.818,63.116-19.027C319.381,1248.707,310.73,1251.025,303.634,1254.078z M390.484,1251.577
	c-0.311,0.396-0.933,1.187-1.244,1.583C390.498,1257.429,395.332,1250.658,390.484,1251.577z M402.443,1252.736
	c-0.226-1.993-1.173-2.318-2.841-1.004C399.813,1253.683,400.76,1254.022,402.443,1252.736z M378.03,1253.174
	c-1.583,2.021,1.838,3.506,3.053,1.795C382.865,1252.976,379.147,1251.11,378.03,1253.174z M329.856,1258.969
	c1.725-1.753-1.753-2.587-2.855-1.654C323.41,1259.068,328.329,1261.189,329.856,1258.969z M827.757,1263.493
	c0.113,2.177,5.343,1.838,5.569-0.17C831.758,1262.178,829.227,1262.263,827.757,1263.493z M807.628,1265.882
	c-2.544,0.509-0.961,4.057,1.216,3.209C811.529,1268.61,809.791,1264.935,807.628,1265.882z M793.04,1271.169
	c3.548-0.523,7.421-0.933,10.036-3.675C799.74,1268.271,794.567,1267.295,793.04,1271.169z M815.968,1267.408
	c-0.749,2.276,0.042,3.039,2.361,2.262C819.064,1267.366,818.272,1266.603,815.968,1267.408z M781.081,1271.423
	c0.212,1.951,1.159,2.276,2.841,0.975C783.682,1270.405,782.735,1270.08,781.081,1271.423z M803.486,1274.505
	c-1.654-0.396-4.184,2.064-1.725,2.983C804.433,1279.169,807.727,1274.066,803.486,1274.505z M753.601,1281.813
	c-13.796,0.777-27.579,2.46-41.234,4.665C726.22,1286.661,740.059,1284.428,753.601,1281.813z M656.065,1291.92
	c13.386-0.806,26.759-1.993,40.145-2.785C690.616,1286.728,664.826,1290.879,656.065,1291.92z M646.622,1291.538
	c-1.767,1.781,1.668,3.082,2.771,1.597C651.231,1291.369,647.697,1289.997,646.622,1291.538z M414.741,1309.957
	c-1.809,2.898,4.114,2.898,4.622,0.537C419.094,1308.359,415.871,1308.798,414.741,1309.957z M369.224,1315.229
	c-0.325,0.396-0.961,1.187-1.286,1.583C369.181,1321.039,374.072,1314.311,369.224,1315.229z M374.016,1319.922
	c-1.668-1.018-4.198-0.989-5.781,0.17C368.347,1322.34,373.662,1321.831,374.016,1319.922z M298.008,1330.906
	c0.763-2.29,0-3.053-2.29-2.304C294.898,1330.892,295.676,1331.655,298.008,1330.906z M232.108,1330.708
	c-0.311,0.396-0.961,1.173-1.286,1.569C232.051,1336.504,236.984,1329.747,232.108,1330.708z M2485.887,1331.782
	c1.937,3.421,6.078,3.223,9.499,3.138C2493.111,1331.98,2489.308,1331.57,2485.887,1331.782z M2521.198,1334.878
	c1.329-1.823-1.753-4.142-3.039-2.247C2516.661,1334.454,2519.813,1336.73,2521.198,1334.878z M2519.544,1343.883
	c-1.498,1.894,1.852,3.845,3.223,2.177C2524.167,1344.151,2520.817,1342.158,2519.544,1343.883z M136.494,1349.692
	c1.088-2.983-2.445-6.064-4.184-2.841C130.161,1349.848,134.543,1349.848,136.494,1349.692z M2546.784,1345.423
	c1.753,2.672,4.778,3.76,7.888,3.944C2552.848,1346.681,2549.724,1345.975,2546.784,1345.423z M2528.28,1346.342
	c0.198,1.951,1.159,2.304,2.87,1.074C2530.867,1345.423,2529.906,1345.056,2528.28,1346.342z M2407.448,1354.428
	c-6.05-1.456-12.199-2.431-18.334-3.378C2394.981,1353.184,2401.215,1354.188,2407.448,1354.428z M1732.215,1358.047
	c0.014,0.467,0.057,1.371,0.071,1.838c2.672,0.17,5.358,0.254,8.071,0.155C1738.717,1357.184,1734.872,1358.555,1732.215,1358.047z
	 M1837.611,1359.206c3.802,0.523,7.661,0.678,11.535,0.693C1845.371,1359.177,1841.371,1357.792,1837.611,1359.206z
	 M1858.15,1361.835c0.226,1.937,1.201,2.276,2.898,1.032C1860.751,1360.874,1859.789,1360.534,1858.15,1361.835z M1882.237,1364.945
	c0.226,1.951,1.188,2.29,2.884,1.032C1884.852,1363.998,1883.891,1363.644,1882.237,1364.945z M110.781,1367.857
	c-0.792,2.276-0.014,3.025,2.318,2.276C113.877,1367.8,113.099,1367.051,110.781,1367.857z M31.96,1373.483
	c2.898,0.113,5.682-0.622,8.255-1.922C38.067,1367.602,32.384,1369.143,31.96,1373.483z M1916.163,1369.115
	c-1.484,1.894,1.908,3.802,3.223,2.092C1920.856,1369.256,1917.421,1367.362,1916.163,1369.115z M1614.719,1373.143
	c-0.184,1.032-0.551,3.124-0.735,4.156c-12.145-2.072-57.633-5.589-66.664-5.259c0.693,0.424,2.078,1.272,2.785,1.696
	c17.966,2.106,36.202,2.488,54.069,5.471c18.08,7.322,37.983,5.386,56.981,4.439c49.295-4.957,46.726,2.322,114.103-9.881
	c2.05-0.622,4.891-0.438,5.951-2.728C1734.182,1376.393,1700.519,1383.614,1614.719,1373.143z M1949.721,1373.652
	c-1.583,2.813,4.594,3.901,5.032,1.117C1954.216,1372.677,1951.106,1372.338,1949.721,1373.652z M159.408,1381.102
	c3.082-0.24,2.771-4.948-0.523-3.492C155.846,1377.78,156.27,1382.417,159.408,1381.102z M2557.683,1378.84
	c-0.848,1.951-0.24,2.601,1.837,1.979C2560.34,1378.854,2559.718,1378.19,2557.683,1378.84z M1528.336,1381.879
	c-0.325,0.367-0.947,1.074-1.258,1.442C1528.322,1387.647,1533.255,1381.399,1528.336,1381.879z M2003.493,1381.469
	c-0.028,0.735-0.085,2.177-0.127,2.898c2.445,0.014,4.905,0.014,7.393-0.056C2008.935,1382.035,2006.165,1381.681,2003.493,1381.469
	z M1190.634,1382.953c-2.219-0.099-4.75-0.565-6.686,0.721c0.891,2.12,4.693,0.891,6.644,0.947
	C1192.868,1384.876,1192.995,1382.6,1190.634,1382.953z M1203.342,1383.434c-1.725,2.163,2.219,3.986,3.576,2.106
	C1208.615,1383.349,1204.657,1381.498,1203.342,1383.434z M1227.486,1383.505c-1.724,2.12,2.092,4.128,3.492,2.205
	C1232.631,1383.576,1228.843,1381.526,1227.486,1383.505z M1262.712,1382.982c-0.339,0.424-1.018,1.286-1.357,1.711
	C1262.811,1389.498,1268.154,1382.105,1262.712,1382.982z M1293.203,1385.71c2.502,0.085,5.018,0.113,7.563,0.099
	C1300.582,1381.413,1294.786,1383.038,1293.203,1385.71z M1509.677,1385.781c3.435,0.113,6.898,0.085,10.361-0.127
	C1518.045,1382.289,1510.186,1381.116,1509.677,1385.781z M2428.355,1385.823c3.166-0.269,6.319-1.06,9.004-2.884
	C2434.08,1382.727,2430.32,1382.727,2428.355,1385.823z M1348.714,1387.449c2.587-0.58,7.139,1.004,7.294-2.898
	c-2.474-0.113-4.933-0.17-7.365-0.212C1348.657,1385.116,1348.7,1386.671,1348.714,1387.449z M1478.649,1384.805
	c-4.693-0.608-8.722,2.078-12.722,4.057c-10.997,0.792-22.066-0.368-33.021,0.693c-8.001-1.541-16.313-1.272-24.441-1.654
	c-0.028,0.438-0.071,1.286-0.099,1.711c8.566,0.311,17.203,1.414,25.755,0.396c9.192,3.013,62.167-3.532,68.855-2.672
	c-0.226-0.58-0.693-1.725-0.919-2.304C1494.269,1384.395,1486.438,1385.328,1478.649,1384.805z M1371.26,1386.487
	c9.414,1.018,18.871,1.838,28.37,1.583C1390.414,1385.456,1380.703,1386.445,1371.26,1386.487z M2052.798,1391.209
	c-8.637-3.124-17.924-3.986-27.013-4.707C2034.648,1388.636,2043.638,1390.855,2052.798,1391.209z M903.539,1390.092
	c-3.788,1.908,1.824,4.976,3.492,2.318C908.415,1390.332,904.98,1389.117,903.539,1390.092z M874.532,1394.63
	c-0.325,2.021,3.209,1.979,4.099,0.693C878.943,1393.23,875.394,1393.273,874.532,1394.63z M847.081,1395.633
	c-0.339,0.424-1.032,1.272-1.371,1.71C847.137,1402.178,852.509,1394.813,847.081,1395.633z M859.831,1395.888
	c-1.64,1.993,1.993,3.435,3.195,1.823C864.694,1395.676,861.004,1394.008,859.831,1395.888z M2126.883,1398.432
	c0.071,0.749,0.212,2.262,0.283,3.011c-7.336-0.184-14.602-1.937-21.938-1.371c-1.002-0.195-38.973-6.789-43.015-6.743
	c4.484,3.383,56.727,11.167,95.19,10.347c-7.647-1.951-15.578-2.954-23.423-3.308
	C2131.647,1399.492,2129.272,1398.899,2126.883,1398.432z M789.888,1403.874c4.212,0.014,8.552-0.325,12.369-2.304
	C798.072,1401.358,793.054,1400.425,789.888,1403.874z M2166.463,1403.224c0.424,2.007,4.198,1.937,5.683,0.862
	C2171.736,1401.938,2167.891,1402.15,2166.463,1403.224z M2183.016,1404.171C2183.242,1408.878,2187.229,1401.98,2183.016,1404.171
	L2183.016,1404.171z M2397.85,1409.797c-1.951-2.389-5.061-2.545-7.859-2.728C2391.673,1409.797,2394.995,1409.727,2397.85,1409.797
	z M975.178,1412.342c6.616,0.707,13.203-0.396,19.663-1.767c-0.057-0.353-0.141-1.046-0.198-1.385
	C988.127,1410.023,981.483,1410.349,975.178,1412.342z M169.642,1419.169c3.619-0.325,7.775,0.339,10.757-2.191
	C176.667,1416.568,172.879,1417.233,169.642,1419.169z M690.938,1422.661c7.605,0.509,15.281-0.17,22.843,1.23
	c-0.184-0.777-0.551-2.332-0.735-3.11C705.71,1420.611,697.822,1419.607,690.938,1422.661z M2398.967,1425.785
	c-29.067-0.548-81.21-6.198-128.112-20.03c-0.24,1.046-0.707,3.152-0.933,4.213c-11.47-3.533-56.44-13.222-66.466-14.136
	c3.995,4.095,34.971,7.99,56.387,14.673c21.273,11.573,43.129,10.862,87.952,14.206c14.574,2.191,29.289,3.477,44.004,4.538
	c15.648,0.212,31.381-0.028,46.959-1.767C2436.62,1425.014,2434.423,1426.714,2398.967,1425.785z M630.55,1429.7
	c4.609,0.768,31.789-1.721,42.492-3.76C658.779,1425.502,644.615,1427.679,630.55,1429.7z M372.164,1453.533
	c-1.922-2.318-4.976-2.417-7.732-2.53C366.481,1453.095,369.407,1453.321,372.164,1453.533z M448.935,1452.049
	c-0.41-2.092-4.255-1.922-5.683-0.834C443.634,1453.293,447.493,1453.109,448.935,1452.049z M381.296,1452.911
	c0.495,0.24,1.484,0.735,1.979,0.99c9.754,1.823,19.776,0.155,29.643,0.947c2.997-0.297,7.209,1.117,9.019-2.135
	C421.936,1452.713,403.207,1451.39,381.296,1452.911z M434.573,1465.902c0.042,0.353,0.113,1.074,0.155,1.442
	c14.772-1.272,29.275-4.651,44.075-5.668c-0.608-0.325-1.823-0.961-2.431-1.286C462.321,1460.813,448.412,1463.598,434.573,1465.902
	z M423.844,1467.188c2.389,0.24,4.82,0.396,7.237,0.565c-0.127-0.636-0.396-1.894-0.523-2.516
	C428.24,1465.619,425.95,1466.128,423.844,1467.188z"/>
</svg>
